<svg version="1.2" xmlns="http://www.w3.org/2000/svg" viewBox="0 0 106 104" width="106" height="104">
	<title>ada</title>
	<style>
		.s0 { fill: #216dd6 } 
		.s1 { fill: #ffffff } 
	</style>
	<g id="ada">
		<g id="ada">
			<path id="Oval" class="s0" d="m54 83c17.7 0 32-14.3 32-32 0-17.7-14.3-32-32-32-17.7 0-32 14.3-32 32 0 17.7 14.3 32 32 32z"/>
			<path id="Shape" fill-rule="evenodd" class="s1" d="m53.4 31.1c1-0.5 2.2 0.7 1.7 1.6-0.3 0.8-1.5 1-2 0.4-0.6-0.6-0.4-1.7 0.3-2zm-10.3 1.1c0.6-0.2 1.4 0.3 1.3 0.9 0.1 0.7-0.8 1.2-1.4 0.9-0.8-0.3-0.7-1.6 0.1-1.8zm21.2 1.8c-1-0.1-1.1-1.5-0.2-1.8 0.7-0.3 1.3 0.3 1.4 0.9-0.2 0.6-0.6 1.1-1.2 0.9zm-18.8 2.5c1-0.6 2.3 0.3 2.2 1.4-0.1 1.2-1.6 1.8-2.4 1.1-0.9-0.6-0.7-2 0.2-2.5zm14.8 0.7c0.5-1.1 2.2-1.2 2.7-0.1 0.5 0.8-0.1 1.9-0.9 2.2-1.2 0.2-2.3-1.1-1.8-2.1zm-8.1 2c0-1 0.9-1.7 1.8-1.7 0.6 0.1 1.3 0.4 1.5 1 0.5 0.8 0.1 1.9-0.8 2.3-0.4 0.2-0.9 0.1-1.3 0.1-0.7-0.3-1.2-0.9-1.2-1.7zm-15.3 1.4c0.9-0.6 2.1 0.4 1.7 1.4-0.2 0.8-1.3 1.1-1.9 0.6-0.7-0.5-0.6-1.7 0.2-2zm32.9 0c0.8-0.6 2 0.1 1.9 1 0.1 0.8-1 1.5-1.8 1.1-0.8-0.4-0.9-1.7-0.1-2.1zm-13.3 1.7c1.3-0.5 2.7 0.1 3.5 1.2 0.9 1.3 0.4 3.3-1.1 4.1-1.5 0.9-3.7 0.1-4.2-1.5-0.6-1.5 0.3-3.4 1.8-3.8zm-7.3 0.1c1.4-0.6 3.3-0.1 3.9 1.3 0.8 1.4 0.2 3.2-1.2 3.9-1.4 0.8-3.4 0.2-4.1-1.2-0.7-1.4-0.1-3.3 1.4-4zm-7.3 2.5c0.1-0.9 0.9-1.5 1.8-1.5 0.9 0.1 1.6 0.8 1.7 1.7 0 0.9-0.7 1.8-1.7 1.8-1.1 0.1-2-1-1.8-2zm21.6-1.3c1.1-0.7 2.6 0.2 2.6 1.5 0 1.3-1.6 2.2-2.7 1.4-1.2-0.6-1.1-2.4 0.1-2.9zm-17.3 4.6c1.3-0.4 2.8 0.2 3.4 1.4 0.7 1.1 0.4 2.8-0.6 3.6-1.4 1.3-3.9 0.8-4.7-0.9-0.8-1.6 0.2-3.7 1.9-4.1zm13.9 0c1.2-0.4 2.7 0.1 3.4 1.2 0.9 1.3 0.4 3.2-0.9 4-1.4 1-3.5 0.5-4.3-1-0.9-1.6 0-3.8 1.8-4.2zm-22.1 1.4c1.1-0.4 2.3 0.8 1.9 1.9-0.3 1-1.7 1.3-2.4 0.6-0.9-0.7-0.5-2.2 0.5-2.5zm30 1.6c-0.1-0.9 0.6-1.7 1.5-1.8 0.8 0.2 1.5 0.8 1.5 1.6 0 1-1.3 1.8-2.2 1.3-0.4-0.3-0.7-0.7-0.8-1.1zm-35.4-1c0.7-0.3 1.5 0.2 1.3 1 0 0.8-1.2 1.1-1.7 0.4-0.4-0.5-0.2-1.2 0.4-1.4zm41.9-0.1c0.5-0.3 1.2-0.1 1.4 0.5 0.3 0.6-0.3 1.4-0.9 1.3-1 0.1-1.3-1.4-0.5-1.8zm-24.6 4c1.7-0.5 3.6 1 3.6 2.7 0.1 1.8-1.7 3.4-3.5 3-1.4-0.2-2.5-1.5-2.5-2.9 0-1.3 1-2.5 2.4-2.8zm6.9 0c1.7-0.5 3.7 1 3.7 2.8 0.1 1.7-1.7 3.3-3.5 2.9-1.6-0.2-2.9-2-2.4-3.6 0.2-1 1.1-1.9 2.2-2.1zm-13.4 1.1c1.3-0.2 2.4 1.1 1.9 2.3-0.4 1.2-2.2 1.5-3 0.5-0.9-0.9-0.2-2.7 1.1-2.8zm20.3 0c1.1-0.4 2.5 0.5 2.4 1.7 0 1.3-1.6 2.1-2.7 1.4-1.2-0.7-1-2.7 0.3-3.1zm5.7 5.6c-0.4-0.8 0.4-1.8 1.2-1.7 0.5 0 0.8 0.4 1.1 0.7 0 0.4 0.1 1-0.3 1.3-0.5 0.7-1.7 0.5-2-0.3zm-32.5-1.4c0.8-0.6 2 0.2 1.8 1.2-0.1 0.8-1.2 1.3-1.9 0.8-0.7-0.4-0.7-1.6 0.1-2zm16.4 1.7c1-0.4 2.4 0.5 2.3 1.7 0.1 1.3-1.6 2.2-2.7 1.4-1.1-0.7-1-2.7 0.4-3.1zm-7.6 1.8c0.9-0.5 2.1 0.3 2 1.3 0.1 0.9-0.8 1.6-1.6 1.5-0.7-0.1-1.1-0.7-1.4-1.3 0.1-0.6 0.3-1.3 1-1.5zm15.3 0c1-0.6 2.3 0.2 2.3 1.3 0 1.2-1.5 1.9-2.4 1.1-0.9-0.5-0.8-1.9 0.1-2.4zm2.7 6.5c-0.4-0.6 0.1-1.4 0.8-1.5 0.5 0.1 1.1 0.5 1 1.1-0.1 0.9-1.4 1.1-1.8 0.4zm-21.2-0.6c0.2-0.5 0.6-1 1.2-0.8 0.8 0 1.1 1.3 0.3 1.7-0.7 0.5-1.4-0.1-1.5-0.9zm10.2 0.6c0.2-0.7 1.2-1.1 1.8-0.7 0.4 0.2 0.6 0.7 0.7 1q-0.1 0.4-0.2 0.7c-0.3 0.3-0.6 0.6-1 0.6-0.8 0.1-1.6-0.8-1.3-1.6z"/>
		</g>
	</g>
</svg>