<svg version="1.2" xmlns="http://www.w3.org/2000/svg" viewBox="0 0 121 99" width="121" height="99">
	<title>Audio coin</title>
	<style>
		.s0 { fill: #22abfc } 
	</style>
	<g id="Audio coin">
		<g id="ADC">
			<path id="Combined Shape" fill-rule="evenodd" class="s0" d="m79.1 51c0 11.6-9.5 21.1-21.1 21.1-11.7 0-21.2-9.5-21.2-21.1 0-11.7 9.5-21.2 21.2-21.2 11.6 0 21.1 9.5 21.1 21.2zm-11-1.2l-14.2-8.2c-1.3-0.7-2.8 0.2-2.8 1.6v16.5c0 1.4 1.5 2.3 2.8 1.6l14.2-8.2c1.2-0.7 1.2-2.5 0-3.3zm21.8 1.2c0 17.6-14.3 31.9-31.9 31.9-17.7 0-32-14.3-32-31.9 0-17.7 14.3-32 32-32 17.6 0 31.9 14.3 31.9 32zm-8 0c0-13.2-10.7-23.9-23.9-23.9-13.2 0-23.9 10.7-23.9 23.9 0 13.2 10.7 23.9 23.9 23.9 13.1 0 23.9-10.8 23.9-23.9z"/>
		</g>
	</g>
</svg>