<svg version="1.2" xmlns="http://www.w3.org/2000/svg" viewBox="0 0 100 88" width="100" height="88">
	<title>Bitconnect (BCC)</title>
	<style>
		.s0 { fill: #f59100 } 
	</style>
	<g id="Bitconnect (BCC)">
		<g id="BCC">
			<path id="Combined Shape" fill-rule="evenodd" class="s0" d="m53.4 75c-17.7 0.2-32.2-13.9-32.4-31.6-0.3-17.7 13.8-32.2 31.5-32.4 17.7-0.3 32.2 13.8 32.5 31.5 0.2 17.7-13.9 32.2-31.6 32.5zm2.1-27.8c0-2.7-1.3-5-3.3-6.5l11.3-9.7c0.5 0.3 1.2 0.6 1.9 0.6 1.9-0.1 3.4-1.6 3.4-3.5-0.1-1.9-1.6-3.3-3.5-3.3-1.8 0-3.3 1.5-3.3 3.4q0 0.7 0.3 1.3l-11.9 10.2q-0.8-0.4-1.8-0.5l-0.1-5.1c1.4-0.5 2.4-1.8 2.4-3.3 0-1.9-1.6-3.4-3.4-3.3-1.9 0-3.4 1.5-3.4 3.4 0.1 1.5 1.1 2.8 2.5 3.2l0.1 5c-4.3 0.3-7.7 3.9-7.7 8.3 0.1 4.6 3.8 8.2 8.4 8.1 1.9 0 3.7-0.7 5.1-1.8l3.3 4.5q-0.1 0.5-0.1 1.1c0 1.8 1.5 3.3 3.4 3.3 1.9 0 3.4-1.5 3.3-3.4 0-1.9-1.5-3.4-3.4-3.4-0.7 0.1-1.4 0.3-2 0.7l-3.2-4.2c1.1-1.5 1.7-3.2 1.7-5.1z"/>
		</g>
	</g>
</svg>