<svg version="1.2" xmlns="http://www.w3.org/2000/svg" viewBox="0 0 104 92" width="104" height="92">
	<title>Bitcoin</title>
	<style>
		.s0 { fill: #f89b2b } 
		.s1 { fill: #ffffff } 
	</style>
	<g id="Bitcoin">
		<g id="Group">
			<path id="Combined Shape" class="s0" d="m51.7 81.2c17.5 0 31.7-14 31.7-31.2 0-17.2-14.2-31.2-31.7-31.2-17.5 0-31.7 14-31.7 31.2 0 17.2 14.2 31.2 31.7 31.2z"/>
			<path id="Combined Shape" fill-rule="evenodd" class="s1" d="m42.1 35q0 0.1 0 0.1c-0.1 0-0.1 0 0-0.1zm3.3 0.8c1.1 0.3 2.2 0.5 3.3 0.8 0.3 0.1 0.4 0 0.5-0.3 0.4-1.6 0.8-3.2 1.2-4.9 0.1-0.3 0.2-0.4 0.5-0.3 1 0.3 1.9 0.5 2.9 0.7 0.3 0.1 0.3 0.2 0.2 0.4-0.4 1.6-0.8 3.2-1.2 4.8 0 0.1 0 0.2-0.1 0.4 0.8 0.2 1.7 0.4 2.5 0.6 0.1 0 0.2-0.2 0.3-0.3 0.3-1.3 0.6-2.5 1-3.7q0.2-0.6 0.3-1.2c0-0.2 0.1-0.3 0.3-0.2 1 0.3 2 0.5 3.1 0.8 0.1 0 0.1 0.1 0.2 0.1-0.3 1.3-0.6 2.4-0.9 3.6-0.1 0.5-0.2 1-0.4 1.5-0.1 0.3 0 0.4 0.3 0.5q1.6 0.7 3.3 1.5c1 0.6 1.9 1.3 2.6 2.3 0.9 1.5 1 3.1 0.6 4.7-0.3 1-0.7 2-1.5 2.8-0.6 0.6-1.4 1-2.2 1.3-0.1 0-0.2 0.1-0.4 0.1 0.4 0.3 0.8 0.5 1.2 0.8 1.2 0.9 2 1.9 2.4 3.3 0.2 1.1 0.1 2.3-0.2 3.4-0.4 1.3-0.9 2.5-1.8 3.6-1.1 1.3-2.5 2-4.1 2.2-2.1 0.3-4.1 0.1-6.1-0.2q-0.5-0.2-0.6 0.3c-0.4 1.6-0.8 3.2-1.2 4.8-0.1 0.4-0.1 0.5-0.6 0.3-0.9-0.2-1.9-0.5-2.8-0.7-0.3-0.1-0.3-0.2-0.2-0.4 0.4-1.7 0.8-3.3 1.3-4.9 0-0.2 0.1-0.3-0.1-0.4-0.8-0.2-1.6-0.4-2.5-0.6-0.2 0.9-0.5 1.8-0.7 2.7-0.2 0.9-0.5 1.7-0.7 2.6-0.1 0.2-0.1 0.3-0.4 0.2-1-0.3-2-0.5-3-0.7-0.3-0.1-0.3-0.2-0.2-0.4 0.4-1.6 0.8-3.3 1.3-4.9 0-0.1 0.1-0.2 0.1-0.4-2.3-0.6-4.6-1.2-7-1.8 0.2-0.3 0.3-0.6 0.5-1 0.4-0.9 0.8-1.8 1.1-2.6 0.1-0.3 0.2-0.3 0.5-0.3 0.7 0.2 1.5 0.4 2.2 0.5 0.8 0.2 1.4-0.2 1.5-0.9 1.3-5 2.6-10 3.8-15.1 0.2-0.8-0.3-1.7-1.2-2-0.9-0.3-1.8-0.5-2.6-0.7-0.2 0-0.3-0.1-0.2-0.3 0.3-1 0.6-2.1 0.8-3.1 1.1 0.3 2.1 0.5 3.1 0.7zm-3.1-0.7q-0.1 0-0.2 0 0.1-0.1 0.3-0.2 0 0.1-0.1 0.2zm4.9 24.3c0.1 0 0.2 0.1 0.2 0.1 1.6 0.4 3.3 0.9 5 1 1.2 0.1 2.3 0.1 3.4-0.3 1.9-0.6 2.7-3.1 1.6-4.7-0.5-0.8-1.3-1.3-2.1-1.7-1.8-1-3.9-1.4-5.9-1.8-0.3-0.1-0.3 0-0.4 0.3-0.2 1-0.5 1.9-0.7 2.8-0.4 1.4-0.7 2.8-1.1 4.3zm8.4-10.1c0.2 0 0.7-0.1 1.1-0.2 1.9-0.4 2.9-2.5 1.9-4.2-0.5-0.9-1.4-1.5-2.3-1.9-1.4-0.6-2.8-0.9-4.3-1.3-0.3-0.1-0.4 0-0.5 0.3-0.5 2.1-1 4.1-1.6 6.1-0.1 0.2 0 0.3 0.2 0.4 0.4 0.1 0.7 0.2 1.1 0.3 1.5 0.2 2.8 0.5 4.4 0.5z"/>
		</g>
	</g>
</svg>