<svg version="1.2" xmlns="http://www.w3.org/2000/svg" viewBox="0 0 83 78" width="83" height="78">
	<title>Bitcoin Gold</title>
	<style>
		.s0 { fill: #031e6b } 
		.s1 { fill: #db9a1e } 
		.s2 { fill: #0f2b71 } 
		.s3 { fill: #122c73 } 
	</style>
	<g id="Bitcoin Gold">
		<g id="BTG">
			<path id="Shape" fill-rule="evenodd" class="s0" d="m41.2 70.1c-17.6-0.1-31.7-14-31.6-31.2 0-17.3 14.3-31.2 31.8-31.1 17.6 0.1 31.7 14.1 31.6 31.3-0.2 17.2-14.4 31.1-31.8 31zm28.7-31.1c0-15.7-12.8-28.3-28.7-28.3-15.8 0-28.6 12.6-28.6 28.2 0 15.7 12.8 28.3 28.7 28.3 15.8 0 28.6-12.6 28.6-28.2z"/>
			<path id="Combined Shape" fill-rule="evenodd" class="s1" d="m67.6 39c-0.2 14.4-12 26-26.5 25.9-14.7-0.2-26.4-11.9-26.2-26.2 0.2-14.4 12-25.8 26.4-25.7 14.6 0.1 26.3 11.7 26.3 26zm-26.3-18.3c-10.1-0.1-18.4 7.9-18.6 18.1-0.2 10 8.1 18.3 18.4 18.4 10.2 0.1 18.5-8.1 18.7-18.2 0-10.1-8.2-18.2-18.5-18.3z"/>
			<path id="Combined Shape" fill-rule="evenodd" class="s2" d="m56.8 39c-0.1 8.5-7.1 15.3-15.6 15.3-8.7-0.2-15.6-7.1-15.5-15.5 0.1-8.5 7.1-15.2 15.6-15.2 8.6 0.1 15.5 7 15.5 15.4zm-15.5-12.5c-6.9-0.1-12.6 5.4-12.7 12.3-0.1 6.9 5.5 12.5 12.6 12.6 6.9 0.1 12.6-5.5 12.7-12.4 0-6.9-5.6-12.5-12.6-12.5z"/>
			<path id="Shape" fill-rule="evenodd" class="s3" d="m31.6 30.2q0 0 0 0c0 0.1 0 0.1 0 0zm2.3 0c0.7 0 1.5-0.1 2.2-0.1 0.2 0 0.3 0 0.3-0.2 0-1.2 0-2.3-0.1-3.4 0-0.2 0.1-0.3 0.3-0.3 0.7 0 1.3 0 2-0.1 0.2 0.1 0.2 0.1 0.2 0.3 0 1.1 0 2.2 0.1 3.3 0 0.1 0 0.1 0 0.3 0.5 0 1.1-0.1 1.7-0.1 0 0 0.1-0.1 0.1-0.2 0-0.9 0-1.7 0-2.6q0-0.4 0-0.8c0-0.2 0-0.2 0.2-0.2 0.7 0 1.3 0 2.1 0 0.1 0 0.1 0 0.1 0 0.1 0.9 0.1 1.7 0.1 2.5 0 0.3 0 0.7 0 1 0 0.2 0.1 0.3 0.3 0.3q1.2 0.2 2.4 0.4c0.7 0.2 1.4 0.6 2.1 1.1 0.8 0.8 1.2 1.8 1.2 2.9 0 0.7-0.1 1.4-0.5 2.1-0.3 0.5-0.7 0.8-1.2 1.2-0.1 0-0.1 0.1-0.2 0.1 0.3 0.1 0.6 0.2 0.9 0.3 0.9 0.4 1.6 0.9 2.1 1.8 0.3 0.6 0.5 1.4 0.5 2.2 0 0.9-0.2 1.8-0.5 2.6-0.5 1-1.3 1.7-2.3 2.1-1.3 0.6-2.6 0.8-4 0.9q-0.3 0-0.3 0.3c0 1.1 0 2.3 0 3.3 0.1 0.3 0.1 0.4-0.3 0.3-0.6 0.1-1.3 0-1.9 0.1-0.2 0-0.2-0.1-0.2-0.2-0.1-1.2-0.1-2.3 0-3.5-0.1-0.1 0-0.2-0.2-0.2-0.5 0-1.1 0-1.7 0.1 0 0.6 0 1.2 0 1.8 0 0.6 0 1.2 0 1.8 0 0.2 0 0.2-0.2 0.2-0.7 0-1.4 0-2 0.1-0.3 0-0.3-0.1-0.2-0.2-0.1-1.2-0.1-2.3-0.1-3.4 0-0.1 0.1-0.2 0-0.3-1.6 0-3.2 0-4.8 0 0-0.2 0.1-0.5 0.1-0.7 0.1-0.7 0.2-1.3 0.3-1.9 0-0.2 0.1-0.2 0.3-0.3 0.4 0 1 0 1.5 0 0.5 0 0.8-0.4 0.8-0.8-0.1-3.5-0.1-7-0.2-10.5 0-0.5-0.5-1-1.2-1.1-0.6 0-1.2 0-1.8 0-0.1 0.1-0.2 0-0.1-0.1 0-0.7 0-1.5 0-2.2 0.7 0 1.4 0 2.1 0zm-2.1 0q-0.1 0-0.2 0 0.1 0 0.2-0.1 0 0.1 0 0.1zm7.4 14.9c0 0 0.1 0 0.1 0 1.1 0 2.3 0 3.4-0.2 0.8-0.1 1.5-0.3 2.2-0.8 1.1-0.7 1.2-2.4 0.2-3.2-0.5-0.5-1.1-0.6-1.7-0.8-1.3-0.3-2.8-0.2-4.1-0.2-0.2 0-0.2 0.1-0.2 0.3 0 0.7 0 1.3 0 2 0 0.9 0.1 1.9 0.1 2.9zm3.6-7.9c0.2-0.1 0.5-0.2 0.7-0.3 1.2-0.6 1.4-2.2 0.5-3.1-0.5-0.5-1.2-0.7-1.8-0.8-1-0.2-2-0.1-3-0.1-0.2 0-0.3 0.1-0.3 0.3 0 1.4 0.1 2.7 0 4.2 0 0.1 0.1 0.2 0.2 0.2 0.3 0 0.5 0 0.8 0 1-0.1 1.9-0.2 2.9-0.4z"/>
		</g>
	</g>
</svg>