<svg version="1.2" xmlns="http://www.w3.org/2000/svg" viewBox="0 0 125 100" width="125" height="100">
	<title>Bitshares (BTS)</title>
	<style>
		.s0 { fill: #35baeb } 
	</style>
	<g id="Bitshares (BTS)">
		<g id="BTS">
			<path id="Shape" fill-rule="evenodd" class="s0" d="m92.9 55c0 17.6-14.3 31.9-31.9 31.9-17.7 0-32-14.3-32-31.9 0-17.7 14.3-31.9 32-31.9 17.6 0 31.9 14.2 31.9 31.9zm-21.5-1.2l-5.6 5.6c0.3 0.5 0.6 1 0.7 1.7h7.8c-0.2-2.8-1.3-5.3-2.9-7.3zm-8.5-4.2v7.9c0.6 0.1 1.2 0.4 1.7 0.7l5.5-5.6c-1.9-1.7-4.4-2.8-7.2-3zm-13-15.1c0 0 0 13.4 0 13.8 2.1 2.1 8.7 8.7 9.8 9.8 0.5-0.2 1-0.5 1.5-0.6v-12.8zm0 16.3v10.2h7.9c0.1-0.6 0.3-1.2 0.7-1.7zm2.9 19.2l5.6-5.6c-0.4-0.5-0.6-1.1-0.7-1.7h-7.8c0.2 2.8 1.3 5.3 2.9 7.3zm8.5 4.1v-7.8c-0.6-0.1-1.2-0.4-1.7-0.7l-5.6 5.6c2 1.7 4.5 2.8 7.3 2.9zm1.6 0c2.8-0.2 5.3-1.3 7.2-3l-5.5-5.5q-0.8 0.5-1.7 0.7zm11.5-11.4h-8q-0.1 0.8-0.5 1.5l5.6 5.6c1.6-2 2.7-4.4 2.9-7.1z"/>
		</g>
	</g>
</svg>