<svg version="1.2" xmlns="http://www.w3.org/2000/svg" viewBox="0 0 104 92" width="104" height="92">
	<title>Dash</title>
	<style>
		.s0 { fill: #008de4 } 
		.s1 { fill: #ffffff } 
	</style>
	<g id="Dash">
		<g id="dash-d-blue-circle">
			<path id="Oval" class="s0" d="m54 80c17.7 0 32-14.1 32-31.5 0-17.4-14.3-31.5-32-31.5-17.7 0-32 14.1-32 31.5 0 17.4 14.3 31.5 32 31.5z"/>
			<g id="Group">
				<path id="Combined Shape" class="s1" d="m60.8 30.9h-16l-1.4 7.3h14.5c7.2 0 9.3 2.6 9.2 6.8 0 2.2-1 5.8-1.4 7-1.1 3.2-3.3 6.8-11.8 6.8h-14.1l-1.3 7.3h16c5.7 0 8.1-0.6 10.6-1.8 5.6-2.5 9-8 10.4-15.2 2-10.7-0.5-18.2-14.7-18.2m-23 13.9c-4.2 0-4.8 2.7-5.2 4.3-0.5 2.2-0.7 3-0.7 3h16.5c4.2 0 4.8-2.7 5.2-4.3 0.5-2.1 0.7-3 0.7-3h-16.5z"/>
			</g>
		</g>
	</g>
</svg>