<svg version="1.2" xmlns="http://www.w3.org/2000/svg" viewBox="0 0 98 94" width="98" height="94">
	<title>decred copy</title>
	<style>
		.s0 { fill: #ffffff;stroke: #b3b3b3;stroke-linejoin: round } 
		.s1 { fill: #2cd7a3 } 
		.s2 { fill: #2872fe } 
	</style>
	<g id="decred copy">
		<g id="Group 2">
			<path id="Oval" class="s0" d="m49 77c17.7 0 32-14.3 32-32 0-17.7-14.3-32-32-32-17.7 0-32 14.3-32 32 0 17.7 14.3 32 32 32z"/>
			<g id="Group">
				<path id="Shape" class="s1" d="m64.9 43c0-5.5-4.5-10-10-10h-7.9l5.4 4.7h2.5c2.9 0 5.3 2.4 5.3 5.3 0 2.9-2.4 5.3-5.3 5.3h-7.9l10.8 9.4h7.1l-6.2-5.4c3.6-1.5 6.2-5.1 6.2-9.3z"/>
				<path id="Shape" class="s2" d="m37.7 47.7c0-3 2.4-5.3 5.3-5.3h7.9l-10.8-9.4h-7.1l6.2 5.4c-3.6 1.5-6.2 5.1-6.2 9.3 0 5.5 4.5 10 10 10h7.9l-5.4-4.7h-2.5c-2.9 0-5.3-2.4-5.3-5.3z"/>
			</g>
		</g>
	</g>
</svg>