<svg version="1.2" xmlns="http://www.w3.org/2000/svg" viewBox="0 0 84 91" width="84" height="91">
	<title>Etherium</title>
	<style>
		.s0 { fill: #8a92b2 } 
		.s1 { fill: #454a75 } 
		.s2 { fill: #808080 } 
		.s3 { fill: #62688f } 
	</style>
	<g id="Etherium">
		<g id="Group">
			<path id="Shape" class="s0" d="m40.1 12.8q0 0.3 0 0.6c0 7.3 0 14.6 0 21.9 0 0.1 0 0.3 0 0.4 0 0.1-0.1 0.2-0.2 0.2-0.7 0.3-1.3 0.6-2 0.9-0.9 0.4-1.9 0.8-2.8 1.3q-1.6 0.7-3.3 1.5-1.4 0.6-2.7 1.2-1.6 0.7-3.3 1.4c-0.9 0.4-1.8 0.8-2.8 1.3-0.7 0.3-1.5 0.7-2.2 1-0.1 0-0.1 0.1-0.2 0 0 0 0 0-0.1 0 0.3-0.5 0.6-0.9 0.9-1.4 1.6-2.6 3.3-5.3 4.9-8 1.7-2.8 3.5-5.7 5.2-8.5 1.6-2.7 3.2-5.3 4.8-7.9 1.2-2 2.4-3.8 3.5-5.8 0.2 0 0.2-0.1 0.3-0.1-0.1 0 0 0 0 0z"/>
			<path id="Shape" class="s1" d="m59.5 44.5c-1.5 1-3.1 1.9-4.6 2.7-4.9 2.9-9.7 5.7-14.6 8.5-0.1 0-0.1 0.1-0.2 0.1-0.1 0-0.1-0.1-0.1-0.1q0-0.1 0-0.3 0-9.6 0-19.2 0-0.1 0-0.3c0-0.1 0.1-0.1 0.2-0.1 0.4 0.2 0.8 0.4 1.3 0.6 1.2 0.6 2.5 1.1 3.7 1.7 1.1 0.5 2.1 1 3.2 1.4 1.1 0.5 2.1 1 3.2 1.4 0.9 0.4 1.9 0.8 2.8 1.3 0.9 0.4 1.9 0.8 2.8 1.3 0.7 0.3 1.4 0.7 2.2 1 0-0.1 0 0 0.1 0z"/>
			<path id="Shape" class="s0" d="m40.1 75.1c0 0-0.1 0 0 0-0.1 0-0.1 0-0.2-0.1-2-2.7-3.9-5.4-5.9-8.2q-3-4.1-6-8.2c-1.9-2.7-3.9-5.3-5.8-8.1q-0.8-1-1.5-2.1c0-0.1-0.1-0.1-0.1-0.2 0.1 0 0.1 0.1 0.2 0.1 2.7 1.6 5.5 3.2 8.2 4.8 3.1 1.8 6.3 3.6 9.4 5.5 0.5 0.3 1.1 0.6 1.6 0.9 0.1 0 0.1 0.1 0.1 0.2q0 0.1 0 0.3c0 4.9 0 9.7 0 14.6 0 0.1 0 0.3 0 0.5z"/>
			<path id="Shape" class="s2" d="m20.6 44.5c0 0 0.1 0 0 0q0.1 0 0 0 0 0.1 0 0z"/>
			<path id="Shape" class="s3" d="m20.7 44.6q0-0.2 0 0c1-0.5 2-0.9 3-1.4q1.9-0.9 3.9-1.8c1-0.5 2-0.8 3-1.3 1.4-0.7 2.9-1.3 4.3-2 1-0.4 2-0.9 3-1.3 0.7-0.3 1.4-0.6 2.1-1 0.1 0 0.1-0.1 0.2-0.1 0 0 0 0 0 0.1 0 0.1 0 0.1 0 0.2q0 9.8 0 19.5 0 0.2 0 0.3c-0.1 0.1-0.1 0-0.2 0-0.3-0.2-0.6-0.3-0.8-0.5q-9.1-5.3-18.3-10.6c-0.1-0.1-0.2-0.1-0.2-0.1z"/>
			<path id="Shape" class="s3" d="m59.4 48.2c0 0.1 0 0.1-0.1 0.2-5.8 8.1-11.6 16.1-17.4 24.2-0.6 0.8-1.2 1.6-1.8 2.5 0 0 0 0 0-0.1 0-0.1 0-0.1 0-0.2q0-7.5 0-15 0-0.2 0-0.3c1.3-0.8 2.6-1.6 3.9-2.3q7.6-4.4 15.3-8.9c0-0.1 0.1-0.1 0.1-0.1z"/>
			<path id="Shape" class="s3" d="m40.1 35.8c0-0.1 0-0.2 0-0.2 0-7.5 0-15 0-22.5 0-0.1 0-0.2 0-0.2q9.6 15.6 19.2 31.3c0.1 0.1 0.2 0.2 0.2 0.3-0.4-0.2-0.8-0.4-1.3-0.6-0.5-0.2-1-0.5-1.5-0.7-0.3-0.1-0.6-0.3-1-0.4-0.5-0.2-1.1-0.5-1.6-0.7-0.3-0.1-0.6-0.3-0.9-0.4q-1-0.4-2.1-0.9c-0.4-0.1-0.7-0.2-1.1-0.4-0.5-0.2-1-0.5-1.5-0.7-0.3-0.1-0.6-0.3-0.9-0.4q-1.1-0.5-2.1-0.9c-0.4-0.2-0.7-0.3-1.1-0.5-0.5-0.2-1-0.5-1.5-0.7-0.3-0.2-0.7-0.3-1-0.5q-0.9-0.4-1.8-0.9z"/>
		</g>
	</g>
</svg>