<svg version="1.2" xmlns="http://www.w3.org/2000/svg" viewBox="0 0 89 101" width="89" height="101">
	<title>Europe coin</title>
	<style>
		.s0 { fill: #313131 } 
		.s1 { fill: #1b258e } 
	</style>
	<g id="Europe coin">
		<g id="ERC-alt">
			<path id="Shape" class="s0" d="m47.4 49.7l5.1-1.8c-2-3.1-5.5-5.2-9.5-5.2-5.2 0-9.6 3.5-10.9 8.3l16.3-5.2-1 3.9z"/>
			<path id="Shape" fill-rule="evenodd" class="s1" d="m74.9 54c0 17.6-14.3 31.9-31.9 31.9-17.7 0-32-14.3-32-31.9 0-17.7 14.3-32 32-32 17.6 0 31.9 14.3 31.9 32zm-42.1 4.8l4.3-1.4-0.9 4.5 27.3-8.9c-0.6-10.9-9.5-19.5-20.5-19.5-11.4 0-20.6 9.2-20.6 20.5q0 1.6 0.3 3.2l21.5-6.9-1.2 4 14.2-4.7c-1.9-6-7.5-10.4-14.2-10.4-7.6 0-13.8 5.7-14.7 13l-2.4 0.8c0.5-9 8-16.1 17.1-16.1 8.5 0 15.5 6 16.9 14.1l-19.6 6.4 1-4.2-18.2 5.8c2.3 8.9 10.3 15.5 19.9 15.5 10.7 0 19.5-8.2 20.4-18.6l-3.5 1.1c-1.5 8.1-8.5 14.1-16.9 14.1-7 0-13.1-4.2-15.7-10.3l2.2-0.8c2.3 5.2 7.5 8.8 13.5 8.8 6.8 0 12.6-4.7 14.3-10.9l-4.3 1.4c-1.9 3.6-5.7 6-10 6-4.5 0-8.4-2.6-10.2-6.5z"/>
		</g>
	</g>
</svg>