<svg version="1.2" xmlns="http://www.w3.org/2000/svg" viewBox="0 0 100 94" width="100" height="94">
	<title>Expanse</title>
	<style>
		.s0 { fill: #cd7445 } 
		.s1 { fill: #ffffff } 
	</style>
	<g id="Expanse">
		<g id="Expanse">
			<path id="Oval" class="s0" d="m53 80c17.7 0 32-14.3 32-32 0-17.7-14.3-32-32-32-17.7 0-32 14.3-32 32 0 17.7 14.3 32 32 32z"/>
			<path id="Shape" fill-rule="evenodd" class="s1" d="m71.3 36.6c0.2 0.1 0.7 0.4 0.7 1v20.8c0 0.4-0.2 0.8-0.6 1l-4.6 2.7-3.6 2.1-9.7 5.7q-0.2 0.1-0.5 0.1-0.3 0-0.5-0.2l-6.7-3.8c-3.7-2.2-7.5-4.4-11.3-6.6-0.3-0.1-0.5-0.5-0.5-0.9v-5.5c0-4.9 0-10 0-14.8v-0.1q0 0 0-0.1c0-0.3 0-0.8 0.5-1.1 2.2-1.3 4.3-2.5 6.4-3.8l3.5-2c2.6-1.6 5.3-3.2 7.9-4.8h0.1q0.2-0.1 0.5-0.2l0.2-0.1 0.2 0.1c1.9 1.1 3.8 2.2 5.7 3.3l3.4 2 3.4 2 5.4 3.1zm-17.6 31.4l6-3.5q5.3-3.1 10.7-6.3l0.1-11.7v-7.7l-7.7 4.5v3.5c0 2.7 0 4.8 0 6.7v0.1l-0.1 0.2q-0.2 0.2-0.4 0.3l-2.5 1.5q-1.4 0.8-2.8 1.6l-3.3 1.9zm-18.2-29v19.3l16.7 9.7v-8.9l-3.2-1.9-2.1-1.2c-1-0.6-2.1-1.3-3.2-1.9-0.3-0.1-0.5-0.5-0.5-0.9l-0.1-9.9zm34.1-1.5c0.7-0.9-2.9-1.7-2.9-1.7l-3.2-1.9c-3.1-1.8-6.8-3.9-10.6-6.1-4.2 2.4-7.9 4.7-11.4 6.8l-5.3 3.1 7.6 4.3 8.6-5.1 9.6 5.1c0 0 7-3.6 7.6-4.5z"/>
			<path id="Oval 2" class="s1" d="m53 60c6.6 0 12-5.4 12-12 0-6.6-5.4-12-12-12-6.6 0-12 5.4-12 12 0 6.6 5.4 12 12 12z"/>
			<path id="Path 2" class="s0" d="m49.1 40.7c0 0 6.8 2.9 7.4 5.2 0.6 2.3 0.8-3.8 0.8-3.8 0 0-1.9-1.7-3.3-2-1.5-0.3-4.9 0.6-4.9 0.6zm9.7 1c0 0-0.6 7.4-2.6 8.7-2 1.2 3.8-0.4 3.8-0.4 0 0 1.1-2.3 0.9-3.8-0.1-1.5-2.1-4.5-2.1-4.5zm2 9.5c0 0-7.2 1.7-9.1 0.2-1.8-1.6 1.6 3.5 1.6 3.5 0 0 2.6 0.3 3.9-0.3 1.4-0.6 3.6-3.4 3.6-3.4zm-8.5 4.8c0 0-3.8-6.3-2.9-8.5 0.8-2.2-2.9 2.6-2.9 2.6 0 0 0.5 2.5 1.5 3.6 1 1.1 4.3 2.3 4.3 2.3zm-7.3-6.5c0 0 4.9-5.6 7.3-5.4 2.4 0.2-3.4-1.9-3.4-1.9 0 0-2.2 1.2-2.9 2.5-0.8 1.3-1 4.8-1 4.8z"/>
		</g>
	</g>
</svg>