<svg version="1.2" xmlns="http://www.w3.org/2000/svg" viewBox="0 0 79 85" width="79" height="85">
	<title>FLASH</title>
	<style>
		.s0 { fill: #ffaf00 } 
		.s1 { fill: #fce900 } 
		.s2 { fill: #f8f100 } 
	</style>
	<g id="FLASH">
		<g id="Group">
			<path id="Shape" fill-rule="evenodd" class="s0" d="m69 46.7c0 16.6-13.4 30-30 30-16.6 0-30-13.4-30-30 0-16.6 13.4-30 30-30 16.6 0 30.1 13.5 30 30zm-20.3 9.7v-19.3h-19.3v19.3z"/>
			<path id="Shape" fill-rule="evenodd" class="s1" d="m39 18.2c-3.8 0-7.6 0.8-11.1 2.2-3.4 1.4-6.5 3.5-9.1 6.1-2.6 2.6-4.7 5.7-6.1 9.1-1.4 3.5-2.2 7.2-2.2 11.1 0 3.8 0.7 7.6 2.2 11.1 1.4 3.4 3.5 6.5 6.1 9.1 2.6 2.6 5.7 4.7 9.1 6.1 3.5 1.4 7.2 2.2 11.1 2.2 3.8 0 7.6-0.7 11.1-2.2 3.4-1.4 6.5-3.5 9.1-6.1 2.6-2.6 4.7-5.7 6.1-9.1 1.4-3.5 2.2-7.2 2.2-11.1 0-3.8-0.7-7.6-2.2-11.1-1.4-3.4-3.5-6.5-6.1-9.1-2.6-2.6-5.7-4.7-9.1-6.1-3.5-1.4-7.2-2.2-11.1-2.2zm-11.1 39.7v-22.3h22.3v22.3zm11.1-41.2c16.6 0 30.1 13.5 30 30 0 16.6-13.4 30-30 30-16.6 0-30-13.4-30-30 0-16.6 13.4-30 30-30zm-9.6 39.7h19.3v-19.3h-19.3z"/>
		</g>
		<path id="Shape" fill-rule="evenodd" class="s2" d="m39 78.4c-8.5 0-16.4-3.3-22.4-9.3-6-6-9.3-13.9-9.3-22.4 0-8.5 3.3-16.4 9.3-22.4 6-6 13.9-9.3 22.4-9.3 8.5 0 16.4 3.3 22.4 9.3 6 6 9.3 13.9 9.3 22.4 0 8.5-3.3 16.4-9.3 22.4-5.9 6.1-13.9 9.3-22.4 9.3zm0-60c-15.6 0-28.3 12.7-28.3 28.3 0 15.6 12.7 28.3 28.3 28.3 15.6 0 28.3-12.7 28.3-28.3 0-15.6-12.6-28.3-28.3-28.3z"/>
	</g>
</svg>