<svg version="1.2" xmlns="http://www.w3.org/2000/svg" viewBox="0 0 96 100" width="96" height="100">
	<title>GAME</title>
	<style>
		.s0 { fill: #98c01f } 
	</style>
	<g id="GAME">
		<g id="GAME">
			<path id="Shape" fill-rule="evenodd" class="s0" d="m75.9 51.9v31.9h-31.9c-17.6 0-31.9-14.2-31.9-31.9 0-17.6 14.3-31.9 31.9-31.9 17.6 0 31.9 14.3 31.9 31.9zm-8.1 3h-20.8v5.9h12.3c-3.1 5.3-8.8 8.9-15.4 8.9-9.8 0-17.8-8-17.8-17.8 0-9.9 8-17.9 17.8-17.9 8.5 0 15.6 6 17.4 13.9h6c-1.9-11.2-11.6-19.8-23.4-19.8-13.1 0-23.7 10.7-23.7 23.8 0 13 10.6 23.7 23.7 23.7 7.2 0 13.7-3.3 18-8.3v8.4h5.9z"/>
		</g>
	</g>
</svg>