<svg version="1.2" xmlns="http://www.w3.org/2000/svg" viewBox="0 0 108 82" width="108" height="82">
	<title>Gemz</title>
	<style>
		.s0 { fill: #f36769 } 
	</style>
	<g id="Gemz">
		<g id="GEMZ">
			<path id="Shape" fill-rule="evenodd" class="s0" d="m55 72.9c-17.7 0-32-14.3-32-31.9 0-17.7 14.3-32 32-32 17.6 0 31.9 14.3 31.9 32 0 17.6-14.3 31.9-31.9 31.9zm7.7-43.6h-6.8l7.9 11.6-1.1-11.6q0 0 0 0zm-7.5 1l-8.4 12.1h16.7zm-7.7-0.9l-1.1 11.6 8.1-11.7h-7q0 0 0 0.1zm-1.8-0.1l-8.9 11.2 8.4 1.9 1.2-13.1zm-8.6 12.5l16.5 16.7-8.3-14.9zm9.5 1.8l8.5 15.2 8.4-15.2zm10 14.8l16.5-16.6-8.3 1.7zm8.4-16.1l8.5-1.8-9-11.2h-0.6z"/>
		</g>
	</g>
</svg>