<svg version="1.2" xmlns="http://www.w3.org/2000/svg" viewBox="0 0 124 89" width="124" height="89">
	<title>GNOSIS</title>
	<style>
		.s0 { fill: #21a7c2 } 
	</style>
	<g id="GNOSIS">
		<g id="GNO-alt">
			<path id="Shape" class="s0" d="m65.7 38.1c-1.8-1.8-4.2-2.8-6.8-2.8-2.5 0-4.8 0.9-6.6 2.6l6.7 6.8 6.7-6.6z"/>
			<path id="Shape" fill-rule="evenodd" class="s0" d="m90.9 45c0 17.6-14.3 31.9-31.9 31.9-17.7 0-32-14.3-32-31.9 0-17.7 14.3-32 32-32 17.6 0 31.9 14.3 31.9 32zm-39.6-7.3l-0.3 0.3 8 8 7.9-7.9-0.3-0.3c-1.9-2.2-4.7-3.4-7.7-3.4-2.9 0-5.6 1.2-7.6 3.3zm14 3.5l-2.7 2.7q0.4 0.3 1.1 0.3c1.1 0 2-0.8 2-1.9q0-0.6-0.4-1.1zm-12.5 0.1c-0.2 0.3-0.4 0.8-0.4 1.2 0 1.1 0.9 2 2 2 0.5 0 0.9-0.1 1.2-0.4zm-3.6 9.8l1 0.1-0.6-0.8c-1.2-1.9-1.8-4-1.8-6.2q0-0.7 0.1-1.4v-0.5h-14.5l0.1 0.5c0 0.1 0.5 1.9 2.7 3.8 3.5 3.2 9 4.2 13 4.5zm19.5-6.4c0-1.8-0.5-3.6-1.4-5.1l-0.2-0.3-0.7 0.8c0.5 0.9 0.7 2 0.3 3.1-0.6 1.9-2.7 2.9-4.6 2.2q-0.4-0.1-0.8-0.3l-2.3 2.3-2.1-2c-1 0.6-2.2 0.8-3.3 0.4-2-0.7-3-2.9-2.3-4.8q0.2-0.4 0.4-0.8l-0.8-0.9-0.2 0.3c-0.9 1.5-1.4 3.3-1.4 5.1-0.1 5.3 4.3 9.7 9.7 9.7 5.3 0 9.7-4.4 9.7-9.7zm15.7-1.9l0.1-0.5h-14.5v0.5c0.1 0.4 0.1 0.9 0.1 1.4 0 2.2-0.6 4.3-1.8 6.2l-0.5 0.7h0.9c4-0.3 9.5-1.3 13.1-4.5 2.1-1.9 2.6-3.7 2.6-3.8z"/>
		</g>
	</g>
</svg>