<svg version="1.2" xmlns="http://www.w3.org/2000/svg" viewBox="0 0 92 91" width="92" height="91">
	<title>Golem</title>
	<style>
		.s0 { fill: #313131 } 
		.s1 { fill: #000000 } 
	</style>
	<g id="Golem">
		<g id="GNT">
			<path id="Shape" class="s0" d="m45.1 26.5c-4 0-7.3 3.3-7.3 7.4 0 4.1 3.3 7.4 7.3 7.4 4 0 7.2-3.3 7.2-7.4 0-4.1-3.2-7.4-7.2-7.4z"/>
			<path id="Shape" fill-rule="evenodd" class="s1" d="m76.9 46c0 17.6-14.3 31.9-31.9 31.9-17.7 0-32-14.3-32-31.9 0-17.7 14.3-32 32-32 17.6 0 31.9 14.3 31.9 32zm-24.5-18.2l5.3-5.3-1.5-1.6-5.3 5.4c-1.6-1.3-3.6-2.1-5.8-2.1-5.2 0-9.5 4.4-9.5 9.7 0 4.9 3.7 9 8.4 9.6v6.6c-4.7 0.6-8.4 4.6-8.4 9.6 0 5.3 4.3 9.6 9.5 9.6 5.2 0 9.4-4.3 9.4-9.6 0-5-3.6-9-8.3-9.6v-6.6c4.7-0.6 8.3-4.7 8.3-9.6 0-2.2-0.7-4.3-2.1-6.1z"/>
			<path id="Shape" class="s0" d="m37.8 59.7c0 4.1 3.3 7.4 7.3 7.4 4 0 7.2-3.3 7.2-7.4 0-4.1-3.2-7.5-7.2-7.5-4 0-7.3 3.4-7.3 7.5z"/>
		</g>
	</g>
</svg>