<svg version="1.2" xmlns="http://www.w3.org/2000/svg" viewBox="0 0 107 83" width="107" height="83">
	<title>IOTA</title>
	<style>
		.s0 { fill: #313131 } 
	</style>
	<g id="IOTA">
		<g id="IOTA">
			<path id="Shape" fill-rule="evenodd" class="s0" d="m49 11c-17.7 0-32 14.3-32 32 0 17.6 14.3 31.9 32 31.9 17.6 0 31.9-14.3 31.9-31.9 0-17.7-14.3-32-31.9-32zm12.8 20.8c0.3-1.2 1.5-2 2.7-1.7 1.3 0.3 2.1 1.5 1.8 2.8-0.3 1.2-1.6 2-2.8 1.7-0.6-0.2-1.1-0.5-1.5-1.1-0.3-0.5-0.4-1.1-0.2-1.7zm-0.4 5.6c0.2-0.7 0.7-1.2 1.3-1.4 0.7-0.2 1.4 0 1.8 0.4 0.5 0.5 0.7 1.2 0.6 1.8-0.3 1-1.3 1.6-2.3 1.4-1-0.2-1.6-1.2-1.4-2.2zm-2.2 9.5c-0.5-0.1-0.8-0.4-0.9-0.8-0.1-0.4 0-0.9 0.3-1.2 0.3-0.3 0.7-0.4 1.1-0.3 0.7 0.1 1.1 0.8 0.9 1.4-0.1 0.7-0.8 1-1.4 0.9zm0.7 4.7c-0.1 0.3-0.4 0.5-0.7 0.5-0.3 0-0.6-0.1-0.8-0.4-0.2-0.2-0.2-0.6-0.1-0.9 0.2-0.4 0.8-0.6 1.2-0.4 0.4 0.2 0.6 0.8 0.4 1.2zm-2.1-12.6c-1.1 0-2-0.9-2-2 0-1.1 0.9-2 2-2 1.1 0 2 0.9 2 2 0 1.1-0.9 2-2 2zm2.9 10.3c0.1-0.4 0.4-0.6 0.8-0.6 0.4 0 0.7 0.1 0.9 0.4 0.2 0.3 0.2 0.7 0.1 1-0.3 0.5-0.9 0.8-1.4 0.5-0.5-0.2-0.7-0.8-0.4-1.3zm0.4-5.4c-0.6-0.1-1.1-0.6-1.2-1.2-0.2-0.6-0.1-1.2 0.4-1.7 0.4-0.4 1-0.6 1.6-0.4 0.6 0.1 1.1 0.5 1.3 1.1 0.1 0.6 0 1.3-0.4 1.7-0.5 0.5-1.1 0.6-1.7 0.5zm-2.6-10.3c-1.2 0-2.1-0.9-2.1-2.1 0-1.2 0.9-2.2 2.1-2.2 1.2 0 2.2 1 2.2 2.2 0 1.2-1 2.1-2.2 2.1zm-0.6-11.2c1.5 0 2.7 1.2 2.7 2.7 0 1.4-1.2 2.7-2.7 2.7-1.5 0-2.7-1.3-2.7-2.7 0-1.5 1.2-2.7 2.7-2.7zm-1.5 17.7c0.5 0 0.9 0.2 1.2 0.7 0.2 0.4 0.2 1 0 1.4-0.3 0.4-0.7 0.7-1.2 0.7-0.8 0-1.4-0.6-1.4-1.4 0-0.8 0.6-1.4 1.4-1.4zm-2.2 6c-0.7 0-1.2-0.6-1.2-1.3 0-0.6 0.5-1.2 1.2-1.2 0.7 0 1.2 0.6 1.2 1.2 0 0.7-0.5 1.3-1.2 1.3zm1.1 3.7c0 0.3-0.3 0.6-0.6 0.7-0.4 0.1-0.7 0-1-0.2-0.2-0.3-0.3-0.6-0.3-1 0.2-0.5 0.7-0.8 1.2-0.7 0.5 0.1 0.9 0.6 0.7 1.2zm-3.6-3.7c0.4-0.1 0.8 0.2 1 0.5 0.2 0.4 0.2 0.8 0 1.2-0.2 0.3-0.6 0.5-1 0.5-0.7 0-1.1-0.5-1.1-1.1 0-0.6 0.4-1.1 1.1-1.1zm-1.4-11.1c-0.3 0.1-0.7 0-1-0.3-0.3-0.2-0.4-0.6-0.3-1 0.1-0.4 0.4-0.6 0.7-0.8 0.6-0.1 1.1 0.2 1.3 0.8 0.2 0.5-0.1 1.1-0.7 1.3zm2.2 5c-0.4 0.2-0.8 0.2-1.2 0-0.3-0.2-0.5-0.6-0.5-1 0-0.4 0.2-0.8 0.5-1 0.6-0.3 1.3-0.1 1.6 0.4 0.3 0.6 0.1 1.3-0.4 1.6zm-0.2-5.5c0.3-0.1 0.7 0 1 0.3 0.2 0.2 0.3 0.5 0.2 0.9-0.1 0.3-0.3 0.6-0.6 0.7-0.6 0.1-1.1-0.1-1.3-0.7-0.1-0.5 0.2-1 0.7-1.2zm1.2-3.1c0.2 0 0.5 0.1 0.7 0.4 0.2 0.2 0.2 0.5 0.1 0.8-0.2 0.3-0.4 0.4-0.7 0.5-0.5 0-0.9-0.4-0.9-0.8 0-0.5 0.3-0.9 0.8-0.9zm-1.9-1.7c0.5-0.1 0.9 0.3 1 0.8 0 0.5-0.4 0.9-0.9 0.9-0.3 0-0.6-0.1-0.8-0.4-0.1-0.2-0.2-0.6 0-0.8 0.1-0.3 0.4-0.5 0.7-0.5zm-2.5-1.5c0.5-0.1 1 0.3 1 0.9 0.1 0.5-0.3 1-0.9 1.1-0.5 0-1-0.4-1.1-1 0-0.5 0.4-1 1-1zm0.6 9.2c0.3 0.6 0.1 1.3-0.5 1.6-0.6 0.4-1.3 0.2-1.7-0.4-0.3-0.6-0.1-1.3 0.5-1.7 0.6-0.3 1.3-0.1 1.7 0.5zm-9.2 9.2c0.3-0.3 0.7-0.4 1-0.3 0.4 0.1 0.7 0.3 0.8 0.7 0.1 0.4 0 0.8-0.2 1-0.4 0.4-1.1 0.5-1.5 0.1-0.4-0.4-0.5-1.1-0.1-1.5zm0.1-2.9c0.3-0.3 0.6-0.4 1-0.3 0.3 0.1 0.6 0.3 0.7 0.7 0.1 0.3 0 0.7-0.3 0.9-0.3 0.4-1 0.4-1.3 0-0.4-0.3-0.4-0.9-0.1-1.3zm0.6 6.1c0.5-0.5 1.3-0.5 1.7-0.1 0.5 0.5 0.5 1.3 0.1 1.7-0.3 0.4-0.7 0.5-1.2 0.4-0.4-0.1-0.7-0.4-0.8-0.8-0.2-0.5-0.1-0.9 0.2-1.2zm4.1-10.8c-0.4 0.3-0.9 0.3-1.4 0-0.4-0.2-0.7-0.7-0.7-1.2 0-0.5 0.3-1 0.7-1.2 0.7-0.4 1.5-0.2 1.9 0.5 0.4 0.7 0.2 1.5-0.5 1.9zm0.4 4.7c-0.2 0.4-0.6 0.6-1 0.6-0.4 0-0.8-0.2-1-0.6-0.2-0.3-0.2-0.8 0-1.1 0.4-0.6 1.1-0.7 1.6-0.4 0.5 0.3 0.7 1 0.4 1.5zm-2.8 9.3c0.4-0.5 1-0.7 1.6-0.5 0.6 0.1 1.1 0.6 1.3 1.2 0.1 0.6 0 1.2-0.4 1.6-0.5 0.5-1.1 0.7-1.7 0.5-0.6-0.1-1.1-0.6-1.2-1.2-0.2-0.5-0.1-1.2 0.4-1.6zm2-5.4c-0.4-0.2-0.6-0.6-0.6-1.1 0-0.4 0.2-0.8 0.6-1 0.4-0.3 0.8-0.3 1.2 0 0.6 0.3 0.8 1 0.5 1.6-0.4 0.6-1.1 0.8-1.7 0.5zm1.2 1.8c0.3-0.5 0.7-0.7 1.2-0.8 0.5 0 1 0.3 1.2 0.8 0.3 0.4 0.3 0.9 0 1.4-0.4 0.6-1.2 0.8-1.9 0.5-0.6-0.4-0.9-1.3-0.5-1.9zm1.8-16.7c0.1 0.4 0 0.8-0.3 1.1-0.3 0.4-0.7 0.5-1.1 0.4-0.4-0.1-0.8-0.4-0.9-0.9-0.2-0.6 0.2-1.2 0.8-1.4 0.6-0.2 1.3 0.1 1.5 0.8zm-2.2-5.7c0.8-0.1 1.5 0.5 1.5 1.3 0.1 0.8-0.5 1.5-1.3 1.6-0.8 0-1.5-0.6-1.6-1.4 0-0.8 0.6-1.5 1.4-1.5zm-1.4 5.5c0.2 0.6 0.1 1.2-0.4 1.7-0.4 0.4-1 0.6-1.6 0.5-0.6-0.2-1.1-0.7-1.3-1.3-0.2-0.9 0.3-1.8 1.2-2.1 0.9-0.2 1.9 0.3 2.1 1.2zm-2.7-5.9c0.6-0.1 1.2 0.2 1.5 0.7 0.3 0.4 0.4 1 0.1 1.5-0.2 0.6-0.7 0.9-1.3 0.9-0.9 0.1-1.6-0.6-1.7-1.4 0-0.9 0.6-1.6 1.4-1.7zm0.1 11.2c0.4 0.7 0.4 1.4 0 2-0.3 0.7-1 1-1.7 1-0.7 0-1.4-0.3-1.7-1-0.6-0.9-0.3-2.1 0.7-2.7 1-0.6 2.2-0.2 2.7 0.7zm-4.3 7.8c-0.2-0.2-0.2-0.6-0.1-0.8 0.1-0.3 0.4-0.5 0.7-0.5 0.3 0 0.6 0.1 0.7 0.4 0.3 0.3 0.2 0.8-0.2 1.1-0.3 0.3-0.9 0.2-1.1-0.2zm0.6 2.7c-0.2 0.2-0.6 0.2-0.9 0.1-0.2-0.2-0.4-0.4-0.5-0.7 0-0.4 0.2-0.7 0.4-0.8 0.3-0.2 0.6-0.3 0.9-0.1 0.3 0.1 0.5 0.4 0.5 0.7 0 0.3-0.1 0.6-0.4 0.8zm1.8-15.2c0.2 0.7 0 1.4-0.5 1.9-0.4 0.5-1.1 0.7-1.8 0.5-0.6-0.2-1.1-0.7-1.3-1.3-0.3-1 0.3-2 1.2-2.3 1-0.3 2.1 0.3 2.4 1.2zm-2.8-6.1c0.7 0 1.4 0.3 1.8 0.9 0.4 0.5 0.5 1.3 0.2 1.9-0.3 0.6-1 1.1-1.7 1.1-1 0.1-1.9-0.7-2-1.8-0.1-1.1 0.7-2 1.7-2.1zm-4.8 6.5c0.8-0.2 1.7 0 2.3 0.5 0.6 0.6 0.8 1.5 0.6 2.3-0.2 0.8-0.8 1.4-1.6 1.6-1.2 0.4-2.5-0.3-2.8-1.5-0.4-1.2 0.3-2.5 1.5-2.9zm-1.2 13.5c-1.3 0.7-3 0.3-3.7-1-0.8-1.3-0.3-2.9 1-3.7 1.3-0.7 2.9-0.3 3.6 1 0.8 1.3 0.3 2.9-0.9 3.7zm4.9-4.2c-1 0.6-2.3 0.2-2.9-0.8-0.6-1-0.3-2.4 0.8-3 1-0.6 2.3-0.2 2.9 0.8 0.3 0.5 0.4 1.1 0.2 1.7-0.1 0.5-0.5 1-1 1.3zm0.9 8.2c-0.2-0.3-0.3-0.6-0.1-1 0.1-0.3 0.5-0.5 0.8-0.6 0.4 0 0.7 0.2 0.9 0.5 0.3 0.5 0.2 1.1-0.2 1.4-0.5 0.3-1.1 0.2-1.4-0.3zm0.6 3.6c-0.3-0.5-0.3-1-0.1-1.5 0.2-0.5 0.7-0.8 1.2-0.8 0.5-0.1 1 0.2 1.3 0.6 0.5 0.7 0.3 1.6-0.4 2-0.6 0.5-1.5 0.3-2-0.3zm1.7 3.6c-0.3-0.4-0.4-1-0.1-1.5 0.2-0.5 0.7-0.9 1.3-0.9 0.6-0.1 1.1 0.2 1.4 0.7 0.5 0.7 0.3 1.7-0.4 2.1-0.7 0.5-1.7 0.4-2.2-0.4zm5.4 4.3c-0.6 0.4-1.3 0.5-1.9 0.2-0.7-0.3-1.1-0.9-1.1-1.6-0.1-0.7 0.2-1.4 0.8-1.8 0.9-0.6 2.1-0.4 2.7 0.5 0.6 0.9 0.4 2.1-0.5 2.7zm3.9-3.3c-0.4 0.5-1.1 0.7-1.8 0.5-0.6-0.1-1.1-0.6-1.3-1.3-0.2-0.6 0-1.3 0.4-1.8 0.7-0.7 1.9-0.8 2.7-0.1 0.7 0.7 0.7 1.9 0 2.7zm0.4-6.7c0.6-0.9 1.8-1.3 2.8-0.7 0.9 0.6 1.2 1.8 0.7 2.7-0.6 1-1.8 1.3-2.8 0.8-0.9-0.6-1.3-1.8-0.7-2.8zm4.3 10.4c-0.6 0.6-1.4 0.8-2.2 0.6-0.8-0.2-1.5-0.8-1.7-1.6-0.2-0.8 0-1.6 0.5-2.2 0.9-0.9 2.4-1 3.3-0.1 0.9 0.9 1 2.3 0.1 3.3zm3.7-4.8c-0.4 0.6-1.1 1-1.9 1-0.8 0-1.5-0.4-1.9-1-0.3-0.7-0.3-1.5 0-2.2 0.6-1.1 2-1.4 3-0.8 1.1 0.6 1.4 1.9 0.8 3zm0.7-5.8c-0.2 0.4-0.7 0.6-1.1 0.4-0.4-0.2-0.6-0.7-0.4-1.1 0.2-0.4 0.7-0.6 1.1-0.4 0.4 0.2 0.6 0.7 0.4 1.1zm0.5-4c-0.1 0.6-0.7 0.9-1.3 0.8-0.5-0.1-0.9-0.7-0.7-1.3 0.1-0.5 0.7-0.9 1.2-0.7 0.6 0.1 0.9 0.7 0.8 1.2zm5.1 12.7c-0.7 1.3-2.4 1.7-3.7 1-1.3-0.8-1.7-2.4-1-3.7 0.8-1.3 2.4-1.7 3.7-1 1.3 0.8 1.7 2.4 1 3.7zm2.1-13.2c-0.2 0.5-0.7 0.8-1.2 0.8-0.5 0.1-1-0.2-1.3-0.6-0.3-0.4-0.3-1-0.1-1.4 0.2-0.5 0.7-0.8 1.2-0.9 0.5 0 1 0.2 1.3 0.7 0.3 0.4 0.3 0.9 0.1 1.4zm2.3-3.3c-0.3 0.8-1.3 1.1-2.1 0.8-0.7-0.4-1.1-1.4-0.7-2.1 0.2-0.6 0.7-0.9 1.3-0.9 0.6-0.1 1.1 0.2 1.4 0.6 0.3 0.5 0.4 1.1 0.1 1.6zm2-4.2c-0.3 0.6-0.9 1.1-1.6 1.1-0.7 0.1-1.4-0.3-1.8-0.8-0.4-0.6-0.4-1.3-0.1-2 0.4-0.9 1.6-1.4 2.6-0.9 0.9 0.5 1.3 1.6 0.9 2.6z"/>
		</g>
	</g>
</svg>