<svg version="1.2" xmlns="http://www.w3.org/2000/svg" viewBox="0 0 125 106" width="125" height="106">
	<title>JBS</title>
	<style>
		.s0 { fill: #0273c2 } 
	</style>
	<g id="JBS">
		<g id="JBS-alt">
			<path id="Shape" fill-rule="evenodd" class="s0" d="m92.9 51c0 17.6-14.3 31.9-31.9 31.9-17.7 0-32-14.3-32-31.9 0-17.7 14.3-32 32-32 17.6 0 31.9 14.3 31.9 32zm-15.1 12.6c0.3-0.7 1.1-1.3 1.1-2 0-0.6-1-3.2-2.5-5.9-1.5-2.7-3.3-4.7-3.9-5.6-0.5-1-1.1-3.1-1.9-3.8-0.7-0.8-1.4-0.5-1.8-1.1-0.5-0.6 0.4-5.2-3.6-9.3-4-4.1-11.4-5.5-16.9-1.3-5.4 4.2-6.8 9.4-5.9 13.9 1 4.5 4.6 10.2 11.9 10.8 7.2 0.6 9.1-5.5 9.2-6.6 0.1-1.2-0.7-1.9-0.7-1.9 0 0-0.2 3.8-4 4.6-3.7 0.8-6.7-1.8-7.8-4.6-1-2.8-0.7-5.7 0.8-7.5 1.6-1.8 5.2-3.2 7-0.1-0.7-0.1-3.7 0.3-4 1-0.2 0.7 1.4 4.3 2.6 5.2 1.2 0.9 3.2 0.8 4 0.4-0.8-0.3-2.1-1-2.7-1.9-0.7-1-0.9-1.8-0.6-2.3 0.3-0.4 4.6 0.4 4.6 0.4 0 0 1.3-3.1-1.7-6-3.1-3-8.9-2.2-11.5 1.3-2.6 3.4-2.9 9.3 1.2 13.5-5.3-1.8-8.3-9.5-3.1-15.9 5.6-6.7 12.8-3.5 15.1-1.3 2.2 2.1 4.9 5.7 2.8 10.6 2 0.4 1.9 2.6 1.9 2.6 0 0 1.5-1 2.3-0.3 0.8 0.6 0.7 1.6 0.8 1.8 0.1 0.2 1.8 2.8 1.6 2.9-0.1 0.2-1.6-1.5-2.9-2.5-1.3-0.9-3.2-1.2-3.2-1.2 0 0 2.1 1.2 2.1 2.8 0.1 1.6-2.2 4.1-2.2 4.1 0 0 1.9 0 2.9-0.5 1-0.5 1.4-1.1 2-1.1 0.7 0 2 1.5 2.9 2.7 0.9 1.2 1.8 2.9 1.8 2.9l1.3-1.2c0 0 0.5 1.6-0.4 2.3-0.8 0.8-2.9 0.7-2.9 0.7 0 0-0.4-0.9-1.7-2-1.2-1.1-2.2-1.7-2.2-1.7 0 0-1.1 1.3-3.6 1.3-2.4 0-3.2-1.4-3.2-1.4 0 0-2.5 0.5-3.8 3.3-1.3 2.8-0.7 4.4-0.3 5.1 0.4 0.6 1.1 1.3 2 1.5 0 0-0.2-1.3 0.5-2.5 0.7-1.2 1.2-1.4 2.2-2.5 1-1 1.8-1.8 2.3-1.9 0.5-0.2 1.4 0 2 0 0.6 0 1.4-0.4 2.3-0.1 0.8 0.2 0.6 1.2 1.1 1.9 0.5 0.6 1.8 1.4 2.4 1.3 0.6 0 0.8-0.8 1.2-0.9 0.4-0.2 1.3 0.1 2-0.3 0.6-0.3 0.8-1.1 1.1-1.7z"/>
		</g>
	</g>
</svg>