<svg version="1.2" xmlns="http://www.w3.org/2000/svg" viewBox="0 0 102 86" width="102" height="86">
	<title>Komodo</title>
	<defs>
		<clipPath clipPathUnits="userSpaceOnUse" id="cp1">
			<path d="m84.94 48.97l-8.87 21.37-1.63 1.63q-10.73 4.5-21.47 8.97-10.74-4.47-21.46-8.97l-1.63-1.63-8.88-21.37 8.88-21.36 1.63-1.63q7.51-3.15 15.03-6.3l4.13-1.73 1.15-0.47 1.15-0.48 1.16 0.48 1.14 0.47 4.14 1.73q7.51 3.15 15.03 6.3l1.63 1.63zm-18.59 13.38l5.54-13.38-5.54-13.39-13.39-5.54-13.38 5.54-5.55 13.39 5.55 13.38 13.38 5.54z"/>
		</clipPath>
	</defs>
	<style>
		.s0 { fill: #346767 } 
		.s1 { fill: #fabb37 } 
		.s2 { fill: #517e7e } 
	</style>
	<g id="Komodo">
		<g id="KMD">
			<g id="Rectangle">
				<path id="Mask" fill-rule="evenodd" class="s0" d="m84.9 49l-8.8 21.3-1.7 1.7q-10.7 4.5-21.4 8.9-10.8-4.4-21.5-8.9l-1.6-1.7-8.9-21.3 8.9-21.4 1.6-1.6q7.5-3.2 15-6.3l4.2-1.7 1.1-0.5 1.2-0.5 1.1 0.5 1.2 0.5 4.1 1.7q7.5 3.1 15 6.3l1.7 1.6zm-18.6 13.4l5.5-13.4-5.5-13.4-13.4-5.5-13.4 5.5-5.5 13.4 5.5 13.4 13.4 5.5z"/>
				<g id="Mask by Mask" clip-path="url(#cp1)">
					<path id="Rectangle" fill-rule="evenodd" class="s1" d="m81.7 20.8l-28.9 28.9-28.8-28.9 28.8-28.8z"/>
				</g>
			</g>
			<path id="Shape" fill-rule="evenodd" class="s2" d="m43.5 38.5l-3.9 9.5 3.9 9.4 9.5 4 9.4-4 4-9.4-4-9.5-9.4-3.9z"/>
		</g>
	</g>
</svg>