<svg version="1.2" xmlns="http://www.w3.org/2000/svg" viewBox="0 0 83 88" width="83" height="88">
	<title>LISK</title>
	<style>
		.s0 { fill: #ffffff } 
		.s1 { fill: #1a568d } 
	</style>
	<g id="LISK">
		<path id="Oval" class="s0" d="m43 78c17.7 0 32-14.3 32-32 0-17.7-14.3-32-32-32-17.7 0-32 14.3-32 32 0 17.7 14.3 32 32 32z"/>
		<g id="LISK">
			<path id="Shape" fill-rule="evenodd" class="s1" d="m51.4 57.4l2.7-1.9 1.2 1.9-0.3 2.9-3.9 2.2-6.1 2.9-1.5 0.8v-1.2l0.3-0.8-0.6-2.6 2.2-1.1 3.1-0.8zm-12 3.2l3.1 1.1 0.6 2.4-0.3 0.8v1.3h-0.3l-2.8-1.5-0.5-0.1-5.6-2.8-0.5-0.3-2.3-1-0.2-3.4 0.9-1.6 2.5 2z"/>
			<path id="Shape" fill-rule="evenodd" class="s1" d="m74.9 46c0 17.6-14.3 31.9-31.9 31.9-17.7 0-32-14.3-32-31.9 0-17.7 14.3-32 32-32 17.6 0 31.9 14.3 31.9 32zm-30.2 6.4l-2 5.4 0.2 1 0.7-1.2 0.9 0.5 0.8-0.8 2.1-0.3 0.8-1.1 1.8-0.1 0.1-0.5 1.8-0.3 0.5-5.9-5.7-0.4zm-2.5 4.7l1.8-4.9-3-7.6-2.2 4.6-5.4 2.3 0.2 3.3 2.2 1.2 0.6 0.9 1.1-0.6 0.7 0.2 0.2-0.5 0.5-0.2 1.4 0.5 0.6 1.4 1.1-0.6zm4.6-9.1l6 0.4 0.6-0.5 0.3-0.6v-4.1l0.7-7-3.3 1.2-3.1 4.3v1.9l-1.6 3.8zm4.2-16.2l-5.7-5.4 1.5 3.9 2.7 2.6-0.3 2.3 1.8 1.5 3.1-1.1-2.1-1.7zm-6.9-6.7l-0.2-0.1 0.1 5.1 1.5 3.9-0.4 2.1-4 2.9 0.4 4.7 3.1 7.6 1.7-3.1-0.6-0.8 1.7-4v-2l3.1-4.3-2-1.7 0.3-2.3-2.5-2.5zm-1.9-0.6l-11.4 10.6 9.9 3.3 3.8-2.7 0.2-1.6-1.5-3.9v-6h-0.4zm-1.8 14.6l-9.9-3.2 2.3 11.8-0.2 1.7 0.5 1.5 5.2-2.3 2.4-4.9zm16.1 22l0.4-4.1-1.7-2.9-2-0.9-0.2 1.5 0.6 0.3-2.5 1.7-2.8 2.2-3 0.8-2.4 1.3-3-1.1-5.4-3.1-2.2-1.8 0.4-0.2-0.1-1.5-1.8 0.7-1.4 2.7 0.2 4.6 2.9 1.3 0.5 0.3 5.9 3h0.5l2.9 1.6 1.5 0.1 1.9-1.1 6.2-2.9z"/>
		</g>
	</g>
</svg>