<svg version="1.2" xmlns="http://www.w3.org/2000/svg" viewBox="0 0 102 94" width="102" height="94">
	<title>Litecoin</title>
	<style>
		.s0 { fill: #c0c0c0 } 
		.s1 { fill: #ffffff } 
	</style>
	<g id="Litecoin">
		<g id="Group">
			<path id="Shape" fill-rule="evenodd" class="s0" d="m49.2 74.1c-17.6-0.1-31.7-14.2-31.6-31.7 0-17.6 14.3-31.7 31.8-31.6 17.6 0.1 31.7 14.3 31.6 31.8-0.2 17.5-14.4 31.6-31.8 31.5zm28.7-31.6c0-15.9-12.8-28.7-28.7-28.7-15.8 0-28.6 12.8-28.6 28.6 0 15.9 12.8 28.7 28.7 28.7 15.8 0 28.6-12.8 28.6-28.6z"/>
			<path id="Shape" fill-rule="evenodd" class="s0" d="m73.6 42.5c-0.2 13.5-11.1 24.4-24.5 24.3-13.6-0.2-24.4-11.2-24.2-24.6 0.2-13.5 11.1-24.2 24.4-24.1 13.5 0.1 24.3 11 24.3 24.4zm-25.9 8.7q0-0.2 0-0.3c0.7-2.7 1.3-5.3 2-8 0.1-0.2 0.3-0.5 0.6-0.6 0.7-0.3 1.4-0.6 2.1-0.8 1.6-0.4 2.5-1.3 2.7-2.9 0.1-0.7 0.4-1.4 0.6-2.2-1.7 0.7-3.2 1.3-4.8 1.9 1.1-4.3 2.1-8.3 3.2-12.5-0.3 0-0.5 0-0.7 0q-4.2 0-8.4 0c-0.6 0-0.8 0.2-1 0.8q-2.1 7.8-4.2 15.6c-0.1 0.3-0.4 0.6-0.6 0.7-0.9 0.4-1.9 0.7-2.8 1.1-0.2 0.1-0.5 0.2-0.5 0.3-0.4 1.3-0.8 2.7-1.3 4.2 1.4-0.6 2.6-1.1 4-1.6-0.9 3.5-1.8 6.9-2.7 10.3 2 0 3.9 0 5.8 0 6.7 0 13.3 0 20 0 0.5 0 0.7-0.1 0.8-0.6 0.2-1 0.5-2 0.8-2.9 0.2-0.7 0.3-1.4 0.5-2.2-5.4-0.1-10.7-0.2-16.1-0.3z"/>
			<path id="Shape" class="s1" d="m47.7 51.2c5.4 0.1 10.7 0.2 16.1 0.4-0.2 0.8-0.4 1.5-0.5 2.2-0.3 1-0.6 1.9-0.8 2.9-0.1 0.5-0.3 0.6-0.8 0.6-6.7 0-13.3 0-20 0-1.9 0-3.8 0-5.8 0 0.9-3.5 1.8-6.8 2.7-10.3-1.4 0.5-2.6 1-4 1.6 0.4-1.5 0.8-2.8 1.3-4.2 0-0.2 0.3-0.3 0.5-0.3 0.9-0.4 1.9-0.7 2.8-1.1 0.3-0.1 0.6-0.4 0.6-0.7q2.1-7.8 4.2-15.6c0.1-0.6 0.3-0.8 1-0.8q4.2 0 8.4 0c0.2 0 0.4 0 0.7 0-1.1 4.1-2.1 8.2-3.2 12.5 1.6-0.7 3.1-1.3 4.8-1.9-0.2 0.8-0.5 1.5-0.6 2.2-0.2 1.6-1.1 2.5-2.7 2.9-0.7 0.2-1.4 0.5-2.1 0.8-0.2 0.1-0.5 0.4-0.6 0.6-0.7 2.7-1.4 5.3-2 8 0 0 0 0.1 0 0.2z"/>
		</g>
	</g>
</svg>