<svg version="1.2" xmlns="http://www.w3.org/2000/svg" viewBox="0 0 117 97" width="117" height="97">
	<title>MaidSafeCoin</title>
	<defs>
		<clipPath clipPathUnits="userSpaceOnUse" id="cp1">
			<path d="m84.37 18.01v44.07h-55.16v-44.07z"/>
		</clipPath>
		<clipPath clipPathUnits="userSpaceOnUse" id="cp2">
			<path d="m29.19 42.55h0.97v-0.97h-0.97z"/>
		</clipPath>
		<clipPath clipPathUnits="userSpaceOnUse" id="cp3">
			<path d="m29.19 42.98h0.97v-0.97h-0.97z"/>
		</clipPath>
	</defs>
	<style>
		.s0 { fill: #000000 } 
		.s1 { fill: #4391db } 
		.s2 { fill: #90bde9 } 
		.s3 { fill: #aac5e1 } 
		.s4 { fill: #b7d4f1 } 
		.s5 { fill: #e4effa } 
		.s6 { fill: #95c1eb } 
		.s7 { fill: #97c2eb } 
		.s8 { fill: #cbe0f5 } 
		.s9 { fill: #1a568d } 
	</style>
	<g id="MaidSafeCoin">
		<g id="Page 1">
			<g id="Group 3">
				<path id="Clip 2" fill-rule="evenodd" class="s0" d="m84.4 18v44.1h-55.2v-44.1z"/>
				<g id="Mask by Clip 2" clip-path="url(#cp1)">
					<path id="Fill 1" class="s1" d="m73.4 18h0.7c0.1 0 0.2 0 0.3 0h0.1q1.2 0 2.3 0.4 1.3 0.4 2.5 1 1.5 0.7 2.9 1.6 1 0.5 1.9 1c0.1 0.1 0.2 0.1 0.3 0.2 0 0.1-0.1 0.2-0.2 0.2q-1.2 0.7-2.4 1.4-1.2 0.7-2.4 1.4-1.2 0.7-2.5 1.4-1.1 0.7-2.2 1.3-1.2 0.7-2.3 1.4-1.2 0.6-2.3 1.3-1.3 0.8-2.7 1.5-1.2 0.7-2.4 1.4-1.3 0.8-2.5 1.5-1.2 0.7-2.4 1.4-1.3 0.7-2.5 1.4-1.1 0.7-2.3 1.3-1.2 0.7-2.5 1.5-1.2 0.7-2.4 1.4-0.8 0.4-1.5 0.8c0 0.1-0.1 0.1-0.1 0.1 0 0.1 0.1 0.1 0.1 0.1q1.4 0.8 2.8 1.6 1.5 0.9 3 1.8 1.2 0.6 2.4 1.3 0.1 0.1 0.3 0.2c0.2 0.1 0.3 0.2 0.5 0.3q1.9 1.1 3.7 2.2 1.6 0.9 3.2 1.8 0.1 0 0.2 0.2 0 0.1 0 0.2 0 4.6 0 9.2c0 0.3-0.1 0.3-0.3 0.2q-2.3-1.3-4.5-2.6-2.2-1.3-4.4-2.6-2-1.1-4-2.2-1.9-1.2-3.8-2.3-1.6-0.9-3.2-1.8-1.6-0.9-3.2-1.8-2-1.2-4-2.4-2.1-1.2-4.2-2.4-1.6-0.9-3.2-1.8-0.4-0.3-0.8-0.5-0.2-0.1-0.2-0.2c0-0.1 0.1-0.2 0.2-0.2q1.5-0.9 3.1-1.8 1.4-0.8 2.9-1.7 1.3-0.7 2.7-1.5 1.3-0.8 2.7-1.6 1.2-0.7 2.4-1.4 1.4-0.7 2.7-1.5 1.3-0.7 2.6-1.5 1.3-0.7 2.6-1.4 1.2-0.7 2.3-1.4 1.3-0.7 2.5-1.4 1.2-0.7 2.4-1.4 1.2-0.7 2.4-1.4 1.1-0.6 2.2-1.2 0.8-0.5 1.7-1 1.2-0.7 2.5-1.3 1.3-0.6 2.7-1.1 1.1-0.3 2.3-0.5 0.5-0.1 1.1-0.1c0 0 0.1 0 0.2 0"/>
				</g>
			</g>
			<path id="Fill 4" class="s2" d="m29.2 41.4q0.1 0 0.1 0.1 4.2 2.4 8.4 4.8 4.4 2.5 8.8 5.1 3.5 2 7 4 3.9 2.3 7.9 4.6 1.7 1 3.4 2c0.1 0.1 0.1 0.1 0.1-0.1q0-4.8 0-9.5 0-0.2 0-0.3v-8.3q0-0.1 0-0.2c0-0.1 0-0.2 0.1-0.2q1.4-0.9 2.8-1.7 1.6-1 3.2-1.9 1.2-0.7 2.4-1.4c0.1-0.1 0.2-0.2 0.3 0q0 0.1 0 0.2 0 20.3 0 40.5 0 0.1 0 0.3c-0.2 0.1-0.3 0-0.3 0q-0.5-0.3-1-0.6-1.3-0.8-2.7-1.5-1-0.7-2.1-1.3-1.3-0.7-2.6-1.5-1.1-0.6-2.1-1.2-1.4-0.8-2.7-1.6-1-0.6-2.1-1.2-1.3-0.8-2.6-1.5-1.1-0.7-2.2-1.3-1.3-0.7-2.6-1.5-1.1-0.6-2.1-1.2-1.4-0.8-2.8-1.7-1.2-0.6-2.4-1.3-1.3-0.8-2.6-1.5-1-0.6-2-1.2-1.4-0.8-2.7-1.7-1.2-0.8-2.3-1.7-0.7-0.6-1.4-1.3c-0.7-0.9-1.4-1.8-1.9-2.8q-0.7-1.4-0.9-3-0.2-0.8-0.3-1.7-0.1-1.2-0.1-2.4 0-1.2 0-2.4v-0.3c0-0.1 0-0.3 0-0.4v-0.2q0-0.1 0 0"/>
			<path id="Fill 6" class="s3" d="m73.7 79.4q0 0 0 0.1h-0.1q0-0.1 0-0.1c0-0.1 0-0.1 0-0.2q0-2.6 0-5.3v-35.3q0-0.1 0-0.3 0 0 0.1 0 0 0.1 0 0.2 0 0.1 0 0.3v40.2c0 0.1 0 0.3 0 0.4"/>
			<g id="Group 10">
				<path id="Clip 9" fill-rule="evenodd" class="s0" d="m29.2 42.5h1v-0.9h-1z"/>
				<g id="Mask by Clip 9" clip-path="url(#cp2)">
					<path id="Fill 8" class="s4" d="m29.2 41.6c0.1 0.1 0 0.3 0 0.4q0 0 0 0z"/>
				</g>
			</g>
			<g id="Group 13">
				<path id="Clip 12" fill-rule="evenodd" class="s0" d="m29.2 43h1v-1h-1z"/>
				<g id="Mask by Clip 12" clip-path="url(#cp3)">
					<path id="Fill 11" class="s5" d="m29.2 42q0 0 0 0 0 0.2 0 0.4 0 0 0 0z"/>
				</g>
			</g>
			<path id="Fill 14" class="s6" d="m73.2 18q0 0 0 0h0.2q-0.1 0.1-0.2 0"/>
			<path id="Fill 16" class="s7" d="m74.4 18c-0.1 0-0.2 0.1-0.3 0h0.3q0 0 0 0"/>
			<path id="Fill 18" class="s8" d="m74.4 18h0.1q0 0 0 0-0.1 0-0.1 0"/>
			<path id="Fill 20" class="s9" d="m73.7 79.4c-0.1 0 0-0.1 0-0.2q0-18.1 0-36.2 0-2.2-0.1-4.5c0 0 0.1-0.1 0-0.2q-0.9 0.6-1.9 1.2-3.4 2-6.7 4-0.1 0-0.1 0 0 0.1-0.1 0.2-1.1 0.6-2.3 1.3-1.6 1-3.3 2-0.8 0.5-1.6 0.9c0 0.1-0.1 0.1-0.2 0.1-0.3-0.1-0.5-0.3-0.7-0.4q-4-2.3-7.9-4.6-0.1 0-0.2-0.1 0.4-0.2 0.8-0.4 3.3-2 6.7-3.9 3.8-2.2 7.5-4.4 5.9-3.4 11.8-6.8 4.4-2.5 8.8-5 0.1-0.1 0.1-0.1c0.1 0 0.1 0.1 0.1 0.1q0 13 0 26 0 7 0 14c0 1.6-0.1 3.3-0.3 4.9-0.3 1.6-0.6 3.1-1.3 4.5-0.6 1.4-1.5 2.5-2.6 3.4-1.1 1-2.4 1.7-3.6 2.5-1 0.6-2 1.1-2.9 1.7"/>
		</g>
	</g>
</svg>