<svg version="1.2" xmlns="http://www.w3.org/2000/svg" viewBox="0 0 99 94" width="99" height="94">
	<title>Monero</title>
	<style>
		.s0 { fill: #4c4c4c } 
		.s1 { fill: #ff6b01 } 
	</style>
	<g id="Monero">
		<g id="Group">
			<path id="Shape" class="s0" d="m78.4 63.3l-12.5 0.3-0.3-17-13.7 14-14.1-13.4 0.3 16.9-12.5 0.2h-0.4c5.8 8.7 15.8 14.4 27.1 14.2 11.3-0.2 21.1-6.2 26.5-15.2z"/>
			<path id="Shape" class="s1" d="m31.4 57.7l-0.5-26 20.9 19.8 20.1-20.5 0.5 26 9.5-0.2c1-3.2 1.6-6.5 1.5-10.1-0.3-17.2-14.8-30.9-32.3-30.6-17.5 0.3-31.4 14.6-31.1 31.8 0.1 3.5 0.7 6.9 1.9 10l9.5-0.2z"/>
		</g>
	</g>
</svg>