<svg version="1.2" xmlns="http://www.w3.org/2000/svg" viewBox="0 0 116 94" width="116" height="94">
	<title>Namecoin</title>
	<style>
		.s0 { fill: #6b91c0 } 
		.s1 { fill: #ffffff } 
	</style>
	<g id="Namecoin">
		<path id="Oval" class="s0" d="m56.7 73.5c17.5 0 31.7-14.2 31.7-31.7 0-17.5-14.2-31.7-31.7-31.7-17.5 0-31.7 14.2-31.7 31.7 0 17.5 14.2 31.7 31.7 31.7z"/>
		<path id="Shape" fill-rule="evenodd" class="s1" d="m72.1 26.1c0 1.6 0 3.3 0 4.9 0 7.8-0.1 15.5-0.1 23.2 0 0.4 0 0.8-0.1 1.2-0.1 0.8-0.5 1.4-1.1 1.8-0.7 0.4-1.4 0.7-2.2 0.7q-0.6 0-1.2-0.3c-0.6-0.3-1.2-0.7-1.8-1.1q-3.1-2.2-6.3-4.5c-3.5-2.6-7.1-5.1-10.6-7.6-0.4-0.3-0.7-0.5-1.1-0.8-0.1 0-0.1-0.1-0.2-0.1 0 0 0 0.1 0 0.2q0 4.2 0 8.4c0 0.8-0.1 1.6-0.1 2.4-0.2 1.7-1.3 2.7-2.6 3.1-0.7 0.2-1.4 0.2-2.1 0.2-0.3 0-0.5 0-0.8 0-0.2 0-0.2 0-0.2-0.2 0-0.4 0-0.9 0-1.3-0.1-8.2-0.1-16.5-0.1-24.7 0-0.7 0-1.5 0-2.2q0-0.9 0.3-1.8c0.2-0.4 0.4-0.8 0.8-1 0.4-0.3 0.9-0.6 1.5-0.7 0.5-0.1 1.1-0.1 1.6-0.1 0.5 0 1 0.2 1.5 0.4 0.5 0.2 1.1 0.6 1.6 0.9 2.5 1.6 4.9 3.1 7.3 4.7 1.9 1.2 3.8 2.5 5.7 3.7 1.4 1 2.9 1.9 4.3 2.8 0.1 0.1 0.1 0.1 0.2 0.1 0 0 0-0.1 0-0.2q0-3.6 0-7.2c0-0.6 0.1-1.3 0.1-1.9 0-0.6 0.2-1.2 0.5-1.7 0.1-0.3 0.3-0.4 0.5-0.6 0.6-0.6 1.4-0.8 2.3-0.9 0.7-0.1 1.3-0.1 2-0.1 0.2 0 0.2 0 0.4 0.3zm-6 21.2q0-0.9 0-1.8c0.1-0.5-0.1-0.8-0.5-1-0.5-0.4-0.9-0.7-1.4-1-2.3-1.5-4.5-3.1-6.8-4.6-2.6-1.7-5.2-3.5-7.8-5.2-0.4-0.3-0.8-0.5-1.2-0.8q-0.3-0.2-0.6 0c-0.1 0.1-0.2 0.2-0.3 0.4-0.1 0.2-0.1 0.4-0.1 0.6-0.1 0.8-0.1 1.7-0.1 2.5 0 0.2 0 0.3 0 0.5 0 0.5 0.2 0.8 0.6 1.1 0.3 0.3 0.6 0.5 0.9 0.7 2 1.4 4 2.7 6 4.1 2.9 1.9 5.8 3.9 8.7 5.8 0.5 0.4 1.1 0.8 1.7 1.2 0.2 0.2 0.4 0.2 0.6 0.1 0.2-0.1 0.3-0.3 0.3-0.5 0-0.6 0-1.2 0-2.1z"/>
	</g>
</svg>