<svg version="1.2" xmlns="http://www.w3.org/2000/svg" viewBox="0 0 109 95" width="109" height="95">
	<title>NEM (Xem)</title>
	<style>
		.s0 { fill: #ffffff;stroke: #b3b3b3;stroke-linejoin: round } 
		.s1 { fill: #fabe00 } 
		.s2 { fill: #2ab8b0 } 
		.s3 { fill: #86c0ea } 
	</style>
	<g id="NEM (Xem)">
		<g id="xem">
			<g id="Group">
				<path id="Oval 4" class="s0" d="m54 84c17.7 0 32-14.3 32-32 0-17.7-14.3-32-32-32-17.7 0-32 14.3-32 32 0 17.7 14.3 32 32 32z"/>
				<g id="XEM">
					<path id="Path" class="s1" d="m39.2 47.6q-0.1-0.7-0.3-1.3-0.6-2.8-0.6-5.7c0-0.1 0-0.1 0-0.2 0 0 0-0.1 0.3-0.2 4.8-2.6 10.3-3.9 15.7-3.9q1.8 0 3.6 0.2c-2.9 1.7-4.8 4.8-4.8 8.3 0 2.6-1.3 4.9-3.5 6.2-1.1 0.7-2.4 1-3.7 1-2.9 0-5.6-1.8-6.7-4.4z"/>
					<path id="Path" class="s2" d="m60.1 63.7q-0.5 0.5-1 0.9-2 1.8-4.2 3.2c-0.2 0.1-0.2 0.2-0.5 0.2-0.4 0-0.4-0.1-0.6-0.2-5.5-3.5-10-8.6-12.7-14.6 1.5 0.8 3.1 1.2 4.8 1.2 1.6 0 3.3-0.4 4.7-1.2q0.1-0.1 0.2-0.1c1.1-0.6 2.3-0.9 3.5-0.9 1.3 0 2.5 0.3 3.5 0.9h0.1q0.1 0 0.2 0.1c2.1 1.3 3.5 3.7 3.5 6.2 0 1.5-0.5 3.1-1.5 4.3z"/>
					<path id="Path" class="s3" d="m64 59.3c0-3.3-1.8-6.5-4.7-8.2q-0.1 0-0.2-0.1c-2.2-1.4-3.5-3.7-3.5-6.2v-0.1c0-3.9 3.2-7.1 7.2-7.1q0.5 0 1.1 0.1 0.6 0.2 1.2 0.3 2.6 0.9 5 2.2c0.3 0.1 0.3 0.2 0.3 0.2 0 0.1 0 0.1 0 0.2-0.2 6.7-2.4 13.3-6.4 18.7z"/>
				</g>
			</g>
		</g>
	</g>
</svg>