<svg version="1.2" xmlns="http://www.w3.org/2000/svg" viewBox="0 0 96 94" width="96" height="94">
	<title>Omnise go</title>
	<style>
		.s0 { fill: #1a53f0 } 
	</style>
	<g id="Omnise go">
		<g id="OMG">
			<path id="Shape" fill-rule="evenodd" class="s0" d="m61.1 48.8c-3.3 0-6-2.7-6-6 0-3.3 2.7-6 6-6 3.3 0 6 2.7 6 6 0 3.3-2.7 6-6 6zm-24.3-6c0-3.3 2.7-6 6-6 3.3 0 6 2.7 6 6 0 3.3-2.7 6-6 6-3.3 0-6-2.7-6-6zm6 12.3c3.3 0 6 2.7 6 6 0 3.3-2.7 6-6 6-3.3 0-6-2.7-6-6 0-3.3 2.7-6 6-6z"/>
			<path id="Shape" fill-rule="evenodd" class="s0" d="m49 81c-17.7 0-32-14.3-32-32 0-17.7 14.3-32 32-32 17.7 0 32 14.3 32 32 0 17.7-14.3 32-32 32zm-9.6-30.3c3.8 1.6 8.2 0.3 10.5-3.1 2.3-3.3 1.9-7.9-1-10.8h2.5v-2.6h-8.6c-4.1 0-7.6 2.9-8.4 6.9-0.8 4 1.3 8 5 9.6zm12 10.4c0-4.7-3.9-8.6-8.6-8.6-4.7 0-8.6 3.9-8.6 8.6 0 4.8 3.9 8.6 8.6 8.6 4.7 0 8.6-3.8 8.6-8.6zm18.3-18.3c0-4.8-3.8-8.6-8.6-8.6-4.7 0-8.6 3.8-8.6 8.6 0 4.7 3.9 8.6 8.6 8.6 4.8 0 8.6-3.9 8.6-8.6z"/>
		</g>
	</g>
</svg>