<svg version="1.2" xmlns="http://www.w3.org/2000/svg" viewBox="0 0 109 81" width="109" height="81">
	<title>OMNI</title>
	<style>
		.s0 { fill: #124793 } 
	</style>
	<g id="OMNI">
		<g id="OMNI">
			<path id="Shape" class="s0" d="m55 25.5c-8 0-14.5 6.5-14.5 14.5 0 7.9 6.5 14.4 14.5 14.4 7.9 0 14.4-6.5 14.4-14.4 0-8-6.5-14.5-14.4-14.5z"/>
			<path id="Shape" fill-rule="evenodd" class="s0" d="m86.9 40c0 17.6-14.3 31.9-31.9 31.9-17.7 0-32-14.3-32-31.9 0-17.7 14.3-32 32-32 17.6 0 31.9 14.3 31.9 32zm-14-18.1h-6.2c2.5 1.7 4.6 3.8 6.2 6.2zm-36 0v6.3c1.7-2.5 3.8-4.7 6.3-6.3zm0 36h6.3c-2.5-1.7-4.6-3.8-6.3-6.3zm36 0v-6.1c-1.6 2.4-3.7 4.5-6.1 6.1zm1.8-17.9c0-10.9-8.8-19.8-19.7-19.8-10.9 0-19.8 8.9-19.8 19.8 0 10.9 8.9 19.7 19.8 19.7 10.9 0 19.7-8.8 19.7-19.7z"/>
		</g>
	</g>
</svg>