<svg version="1.2" xmlns="http://www.w3.org/2000/svg" viewBox="0 0 94 74" width="94" height="74">
	<title>PIVX</title>
	<style>
		.s0 { fill: #5c4c7c } 
	</style>
	<g id="PIVX">
		<g id="PIVX">
			<path id="Combined Shape" fill-rule="evenodd" class="s0" d="m41.4 31.7v-2h8.1c4 0 6.9 2.6 6.9 6.8 0 4.1-2.9 6.8-6.9 6.8h-5.6v8.8h-2.2v-10.8h7.5c3 0 4.9-1.8 4.9-4.8 0-3.1-1.9-4.8-4.9-4.8zm7 3.9v1.8h-8.5v-1.8zm30.6 5.3c0 17.7-14.3 32-31.9 32-17.7 0-32-14.3-32-32 0-17.6 14.3-31.9 32-31.9 17.6 0 31.9 14.3 31.9 31.9zm-15.6-15.8l-16.3-3.4-16.4 3.4v22.7c0 3.3 3.4 6.5 7.1 8.9 4.2 2.7 8.7 4.9 9 5l0.3 0.1 0.2-0.1c0.7-0.2 16.1-6.8 16.1-13.9z"/>
		</g>
	</g>
</svg>