<svg version="1.2" xmlns="http://www.w3.org/2000/svg" viewBox="0 0 83 82" width="83" height="82">
	<title>Potcoin</title>
	<style>
		.s0 { fill: #145914 } 
	</style>
	<g id="Potcoin">
		<g id="POT">
			<path id="Shape" class="s0" d="m45.7 29h-9.6l-0.5 2.7h8.5l-0.8 4h-8.5l-0.6 3.2h10.2c3.5 0 6.7-2.3 7.1-5.9 0.4-3.6-3.2-4-5.8-4z"/>
			<path id="Shape" fill-rule="evenodd" class="s0" d="m72.9 40c0 17.7-14.2 31.9-31.9 31.9-17.6 0-31.9-14.2-31.9-31.9 0-17.6 14.3-31.9 31.9-31.9 17.7 0 31.9 14.3 31.9 31.9zm-29.4-16.8h-12.2l-1.6 8.5h-3.5l-0.8 4h3.5l-4.1 21h6l2.3-12.1h8.9c4.4 0 14.3-0.9 15.6-11.1 1.1-9.5-6-10.3-14.1-10.3z"/>
		</g>
	</g>
</svg>