<svg version="1.2" xmlns="http://www.w3.org/2000/svg" viewBox="0 0 99 93" width="99" height="93">
	<title>qtum</title>
	<style>
		.s0 { fill: #2e9ad0 } 
		.s1 { fill: #ffffff } 
	</style>
	<g id="qtum">
		<g id="qtum">
			<path id="Oval" fill-rule="evenodd" class="s0" d="m49 79c-17.7 0-32-14.3-32-32 0-17.7 14.3-32 32-32 17.7 0 32 14.3 32 32 0 17.7-14.3 32-32 32z"/>
			<path id="Shape" fill-rule="evenodd" class="s1" d="m67.6 62.3l-3.9-3.5-8 5.9q0.1 0.4 0.1 0.7c0 0.9-0.6 1.6-1.5 1.6-0.8 0-1.4-0.5-1.5-1.3h-8.7c-0.1 0.8-0.7 1.3-1.5 1.3-0.9 0-1.6-0.7-1.6-1.6q0-0.3 0.2-0.6l-7.1-5.3c-0.3 0.2-0.7 0.4-1 0.4-0.9 0-1.6-0.7-1.6-1.6 0-0.6 0.3-1.1 0.8-1.4l-2.6-8.3c-0.4 0-0.9-0.1-1.2-0.4-0.3-0.3-0.5-0.8-0.5-1.2 0-0.5 0.2-0.9 0.5-1.2 0.4-0.3 0.8-0.4 1.3-0.4l2.5-8.3c-0.5-0.3-0.8-0.8-0.8-1.4 0-0.9 0.7-1.6 1.6-1.6 0.4 0 0.7 0.2 1 0.4l7.2-5.1q-0.3-0.4-0.3-0.8c0-0.9 0.7-1.6 1.6-1.6 0.8 0 1.4 0.6 1.5 1.3h8.7c0.1-0.8 0.7-1.3 1.5-1.3 0.8 0 1.5 0.7 1.5 1.6q0 0.4-0.2 0.7l7.1 5.3c0.3-0.3 0.7-0.5 1.1-0.5 0.9 0 1.6 0.7 1.6 1.6 0 0.5-0.3 1-0.7 1.3l2.5 8.4c0.5 0 0.9 0.1 1.2 0.4 0.3 0.3 0.5 0.8 0.5 1.2 0 0.4-0.2 0.8-0.5 1.1-0.3 0.3-0.7 0.5-1.1 0.5l-3 9.6 3.8 3.5c0.4-0.4 1-0.6 1.6-0.6 1.3 0 2.3 1 2.3 2.3 0 1.3-1 2.4-2.3 2.4-0.7 0-1.3-0.2-1.7-0.7-0.4-0.4-0.7-1-0.7-1.7q0-0.6 0.3-1.1zm-10.2-5.2q-0.4-0.3-0.5-0.7l-6.9 1q-0.1 0.4-0.4 0.8l4.1 5.7q0.3-0.1 0.7-0.1zm-2.2 7l7.8-5.8-3.4-1.4c-0.3 0.4-0.9 0.7-1.5 0.6l-2.9 6.6q0 0 0 0zm-2.1 0.3l-4.1-5.8q-0.5 0.2-1 0l-4.2 5.8q0.2 0.2 0.3 0.5h8.7q0.1-0.3 0.3-0.5zm12.7-17.4c0-0.6 0.3-1.1 0.7-1.3l-2.4-8-0.5 7.8c0.6 0.2 1 0.8 1 1.5 0 0.7-0.4 1.3-1 1.5l0.5 7.8 2.5-7.9c-0.5-0.3-0.8-0.8-0.8-1.4zm-6.9-7.4q-0.4 0.1-0.8 0l-2.8 6.2c0.4 0.3 0.6 0.7 0.6 1.2 0 0.5-0.2 0.9-0.6 1.2l2.8 6.1q0.4 0 0.7 0.1l3.2-6.3c-0.3-0.3-0.5-0.7-0.5-1.1 0-0.5 0.2-0.9 0.5-1.2zm3.9 8.9l-3.3 6.3c0.4 0.3 0.6 0.8 0.5 1.4l3.5 1.5-0.6-9.1q-0.1 0-0.1-0.1zm0.6-11.3q-0.4-0.1-0.7-0.5l-2.7 1.1c0.1 0.5-0.1 1-0.4 1.4l3.2 6.3q0 0 0.1 0zm-8.8 11.3q-0.4 0.1-0.7 0l-4.3 7.5q0.2 0.2 0.3 0.5l7-1c0.1-0.4 0.3-0.7 0.5-0.9l-2.8-6.1zm0-3.1q0 0 0 0zm2.8-6.2c-0.3-0.2-0.5-0.6-0.5-0.9l-7-1.1q-0.1 0.3-0.3 0.5l4.3 7.7q0.3-0.1 0.7 0zm-4.2 8.8c-0.3-0.3-0.4-0.7-0.4-1.1 0-0.4 0.1-0.8 0.4-1.1l-4.3-7.7q-0.3 0.1-0.7 0l-4.4 7.7c0.2 0.3 0.4 0.7 0.4 1.1 0 0.4-0.2 0.8-0.5 1.1l4.4 7.5q0.4-0.2 0.9 0zm-20.3 8.1l0.6-7.7c-0.7-0.2-1.2-0.8-1.2-1.5 0-0.8 0.5-1.4 1.3-1.6l-0.7-7.7-2.4 8c0.4 0.3 0.6 0.8 0.6 1.3 0 0.5-0.2 1-0.6 1.3zm5.3-1.9h-0.1q0 0 0 0zm0.7 0l2.8-6.1c-0.4-0.3-0.6-0.8-0.6-1.3 0-0.5 0.2-0.9 0.5-1.2l-2.7-6.1q-0.3 0-0.6 0l-3.4 6.2c0.3 0.3 0.5 0.7 0.5 1.1 0 0.5-0.1 0.9-0.5 1.2l3.3 6.2q0.4-0.1 0.7 0zm0 3.1q0 0 0 0zm-1.6-0.6l-2.7 1.2q0.1 0.4 0 0.7l7.1 5.4q0-0.1 0.1-0.1l-2.9-6.6c-0.6 0.1-1.2-0.1-1.6-0.6zm0.2-2.2l-3.2-6-0.6 8.2q0.4 0.1 0.6 0.5l2.7-1.2c-0.1-0.5 0.1-1.1 0.5-1.5zm9.5 1.9q0.1-0.3 0.4-0.6l-4.3-7.4q-0.4 0.1-0.7 0l-2.8 6.2q0.4 0.3 0.5 0.8zm-7.4 0.5l2.9 6.8q0.3 0 0.7 0.1l4.1-5.8q-0.3-0.3-0.4-0.8l-6.9-1q-0.1 0.4-0.4 0.7zm-2.6-19.3l-2.7-1.1q-0.2 0.3-0.6 0.5l0.6 8.1 3.2-5.9c-0.4-0.4-0.6-1-0.5-1.6zm4.6-7.7l-7.1 5.2q0.1 0.3 0.1 0.6l2.8 1.2c0.3-0.5 0.9-0.6 1.5-0.5zm-2.1 9.2l2.8 6.2q0.4-0.1 0.7 0l4.4-7.6q-0.3-0.2-0.4-0.6l-7 1c0 0.4-0.2 0.8-0.5 1zm0-2.3q0.3 0.2 0.4 0.5l6.9-0.9q0.1-0.5 0.4-0.8l-4-5.7q-0.4 0.1-0.8 0.1l-2.9 6.8zm18.7-0.5c0.5 0 1 0.2 1.3 0.6l2.7-1.1q0-0.4 0.1-0.7l-7.1-5.2 3 6.4zm-1.3 1.1q0.1-0.5 0.5-0.8l-3-6.6q-0.4 0-0.8-0.1l-4 5.7q0.3 0.3 0.3 0.8l7 1zm-3.9-8q-0.2-0.2-0.2-0.5h-8.8q-0.1 0.3-0.2 0.5l4 5.7c0.4-0.2 0.8-0.2 1.2 0z"/>
		</g>
	</g>
</svg>