<svg version="1.2" xmlns="http://www.w3.org/2000/svg" viewBox="0 0 126 112" width="126" height="112">
	<title>Rinkeby</title>
	<style>
		.s0 { fill: #ffb077 } 
		.s1 { fill: #ff6b01 } 
		.s2 { fill: #808080 } 
		.s3 { fill: #ff8228 } 
		.s4 { fill: #ff8c3a } 
	</style>
	<g id="Rinkeby">
		<g id="Rinkeby">
			<g id="Group">
				<path id="Shape" class="s0" d="m60.8 25.8q0 0.3 0 0.6c0 7.3 0 14.6 0 21.9 0 0.1 0 0.3 0 0.4 0 0.1-0.1 0.2-0.2 0.2-0.7 0.3-1.3 0.6-2 0.9-0.9 0.4-1.8 0.8-2.7 1.3q-1.7 0.7-3.3 1.5-1.3 0.6-2.6 1.2-1.7 0.7-3.3 1.4c-0.9 0.4-1.8 0.8-2.7 1.3-0.7 0.3-1.5 0.7-2.2 1-0.1 0-0.1 0.1-0.2 0 0 0 0 0-0.1 0 0.3-0.5 0.6-0.9 0.9-1.4 1.6-2.6 3.2-5.3 4.8-8 1.7-2.8 3.4-5.7 5.1-8.5 1.6-2.7 3.2-5.3 4.7-7.9 1.2-2 2.4-3.8 3.5-5.8 0.2 0 0.2-0.1 0.3-0.1-0.1 0 0 0 0 0z"/>
				<path id="Shape" class="s1" d="m79.9 57.5c-1.5 1-3.1 1.9-4.5 2.7-4.9 2.9-9.6 5.7-14.4 8.5-0.1 0-0.1 0.1-0.2 0.1-0.1 0-0.1-0.1-0.1-0.1q0-0.1 0-0.3 0-9.6 0-19.2 0-0.1 0-0.3c0-0.1 0.1-0.1 0.2-0.1 0.4 0.2 0.8 0.4 1.3 0.6 1.2 0.6 2.4 1.1 3.6 1.7 1.1 0.5 2.1 1 3.2 1.4 1 0.5 2 1 3.1 1.4 0.9 0.4 1.9 0.8 2.8 1.3 0.9 0.4 1.8 0.8 2.7 1.3 0.7 0.3 1.4 0.7 2.2 1 0-0.1 0 0 0.1 0z"/>
				<path id="Shape" class="s0" d="m60.8 88.1c0 0-0.1 0 0 0-0.1 0-0.1 0-0.2-0.1-2-2.7-3.8-5.4-5.8-8.2q-3-4.1-5.9-8.2c-1.9-2.7-3.9-5.3-5.7-8.1q-0.8-1-1.5-2.1c0-0.1-0.1-0.1-0.1-0.2 0.1 0 0.1 0.1 0.2 0.1 2.6 1.6 5.4 3.2 8.1 4.8 3 1.8 6.2 3.6 9.2 5.5 0.5 0.3 1.1 0.6 1.6 0.9 0.1 0 0.1 0.1 0.1 0.2q0 0.1 0 0.3c0 4.9 0 9.7 0 14.6 0 0.1 0 0.3 0 0.5z"/>
				<path id="Shape" class="s2" d="m41.6 57.5c0 0 0.1 0 0 0q0.1 0 0 0 0 0.1 0 0z"/>
				<path id="Shape" class="s3" d="m41.7 57.6q0-0.2 0 0c1-0.5 2-0.9 2.9-1.4q2-0.9 3.9-1.8c1-0.5 2-0.8 2.9-1.3 1.4-0.7 2.9-1.3 4.3-2 1-0.4 1.9-0.9 2.9-1.3 0.7-0.3 1.4-0.6 2.1-1 0.1 0 0.1-0.1 0.2-0.1 0 0 0 0 0 0.1 0 0.1 0 0.1 0 0.2q0 9.8 0 19.5 0 0.2 0 0.3c-0.1 0.1-0.1 0-0.2 0-0.3-0.2-0.6-0.3-0.8-0.5q-9-5.3-18-10.6c-0.1-0.1-0.2-0.1-0.2-0.1z"/>
				<path id="Shape" class="s4" d="m79.8 61.2c0 0.1 0 0.1-0.1 0.2-5.7 8.1-11.4 16.1-17.1 24.2-0.6 0.8-1.2 1.6-1.8 2.5 0 0 0 0 0-0.1 0-0.1 0-0.1 0-0.2q0-7.5 0-15 0-0.2 0-0.3c1.3-0.8 2.6-1.6 3.8-2.3q7.6-4.4 15.1-8.9c0-0.1 0.1-0.1 0.1-0.1z"/>
				<path id="Shape" class="s4" d="m60.8 48.8c0-0.1 0-0.2 0-0.2 0-7.5 0-15 0-22.5 0-0.1 0-0.2 0-0.2q9.4 15.6 18.9 31.3c0.1 0.1 0.2 0.2 0.2 0.3-0.4-0.2-0.8-0.4-1.3-0.6-0.5-0.2-1-0.5-1.5-0.7-0.3-0.1-0.6-0.3-0.9-0.4-0.5-0.2-1.1-0.5-1.6-0.7-0.3-0.1-0.6-0.3-0.9-0.4q-1-0.4-2.1-0.9c-0.4-0.1-0.7-0.2-1.1-0.4-0.5-0.2-0.9-0.5-1.4-0.7-0.3-0.1-0.6-0.3-0.9-0.4q-1.1-0.5-2.1-0.9c-0.4-0.2-0.7-0.3-1.1-0.5-0.5-0.2-1-0.5-1.5-0.7-0.2-0.2-0.6-0.3-0.9-0.5q-0.9-0.4-1.8-0.9z"/>
			</g>
		</g>
	</g>
</svg>