<svg version="1.2" xmlns="http://www.w3.org/2000/svg" viewBox="0 0 84 99" width="84" height="99">
	<title>RISE</title>
	<style>
		.s0 { fill: none;stroke: #efefef;stroke-linejoin: round } 
		.s1 { fill: #8652a5 } 
		.s2 { fill: #e73d54 } 
		.s3 { fill: #f49553 } 
		.s4 { fill: #3cbb90 } 
		.s5 { fill: #419dd6 } 
	</style>
	<g id="RISE">
		<g id="RISE">
			<path id="Coin" class="s0" d="m41 80c17.7 0 32-14.3 32-32 0-17.7-14.3-32-32-32-17.7 0-32 14.3-32 32 0 17.7 14.3 32 32 32z"/>
			<g id="ICON">
				<path id="Path" class="s1" d="m34.2 29.1c1.7 0 3.1 1.3 3.1 3 0 1.7-1.4 3.1-3.1 3.1-1.7 0-3-1.4-3-3.1 0-1.7 1.4-3 3-3z"/>
				<path id="Path" class="s2" d="m32.3 40.5l14-10.7c1.2-0.9 3-0.7 3.9 0.6 0.9 1.2 0.7 2.9-0.5 3.8l-14.1 10.7c-0.5 0.4-1.1 0.6-1.7 0.6-0.8 0-1.6-0.4-2.2-1.1-0.9-1.2-0.7-2.9 0.6-3.9z"/>
				<path id="Path" class="s3" d="m32.3 51.5l14-10.7c1.2-0.9 3-0.7 3.9 0.5 0.9 1.2 0.7 3-0.5 3.9l-14.1 10.7c-0.5 0.4-1.1 0.6-1.7 0.6-0.8 0-1.6-0.4-2.2-1.1-0.9-1.2-0.7-3 0.6-3.9z"/>
				<path id="Path" class="s4" d="m35.6 67.1c-0.5 0.3-1.1 0.5-1.7 0.5-0.8 0-1.6-0.3-2.2-1.1-0.9-1.2-0.7-2.9 0.6-3.8l14-10.7c1.2-1 3-0.7 3.9 0.5 0.9 1.2 0.7 2.9-0.5 3.9l-14.1 10.7z"/>
				<path id="Path" class="s5" d="m47.7 67.6c-1.7 0-3-1.4-3-3 0-1.7 1.3-3.1 3-3.1 1.7 0 3.1 1.4 3.1 3.1 0 1.6-1.4 3-3.1 3z"/>
			</g>
		</g>
	</g>
</svg>