<svg version="1.2" xmlns="http://www.w3.org/2000/svg" viewBox="0 0 92 86" width="92" height="86">
	<title>RUBIES (RBIES)</title>
	<style>
		.s0 { fill: #d9001f } 
	</style>
	<g id="RUBIES (RBIES)">
		<g id="RBIES-alt">
			<path id="Shape" fill-rule="evenodd" class="s0" d="m76.9 43.1c0 17.6-14.2 31.8-31.8 31.8-17.6 0-31.9-14.2-31.9-31.8 0-17.6 14.3-31.9 31.9-31.9 17.6 0 31.8 14.3 31.8 31.9zm-17.9-12.8q0.1 0.1 0.3 0.1 0.2 0 0.3-0.1l1.5-1.6c0.2-0.1 0.1-0.4 0-0.5-0.2-0.2-0.4-0.2-0.5 0l-1.6 1.6c-0.1 0.1-0.1 0.4 0 0.5zm-9.1-5.5c-0.1 0.2 0 0.4 0.2 0.5 0.2 0.1 0.5-0.1 0.5-0.3l0.6-2.1c0.1-0.2 0-0.5-0.2-0.5-0.3-0.1-0.5 0-0.5 0.3zm-10.7-2.5q-0.1 0.1-0.2 0.2-0.1 0.2-0.1 0.3l0.7 2.2c0 0.2 0.2 0.3 0.4 0.2 0.2 0 0.4-0.2 0.3-0.4l-0.6-2.2c-0.1-0.2-0.3-0.3-0.5-0.3zm-10.1 5.8q-0.2 0.1-0.2 0.3 0 0.2 0.2 0.3l1.5 1.6q0.2 0.1 0.4 0.1 0.2-0.1 0.3-0.3 0-0.2-0.1-0.4l-1.6-1.6c-0.1-0.1-0.4-0.1-0.5 0zm-3.9 21.5c0.2-0.1 0.3-0.3 0.2-0.5 0-0.2-0.2-0.3-0.4-0.3l-2.1 0.5q-0.2 0.1-0.3 0.2-0.1 0.2 0 0.3c0 0.2 0.2 0.4 0.4 0.3zm0.7-10.6c0.1-0.2 0-0.4-0.2-0.5l-2.2-0.7q-0.2 0-0.3 0.1-0.2 0.2-0.2 0.4 0.1 0.2 0.3 0.3l2.1 0.6c0.2 0.1 0.5 0 0.5-0.2zm19.3 20.4l17.5-18.4-6.8-5.8-3.8-1.2h-13.9l-3.7 1.2-6.8 5.8zm19.2-20.4q0.1 0.2 0.2 0.2 0.1 0.1 0.3 0.1l2.1-0.7q0.2 0 0.3-0.3 0.1-0.2-0.1-0.3-0.2-0.2-0.4-0.1l-2.1 0.6c-0.2 0.1-0.4 0.3-0.3 0.5zm3.3 10.9c0-0.2-0.1-0.4-0.3-0.5l-2.1-0.5c-0.2-0.1-0.4 0.1-0.5 0.3 0 0.2 0.1 0.4 0.3 0.4l2.1 0.6c0.2 0 0.4-0.1 0.5-0.3z"/>
			<path id="Shape" fill-rule="evenodd" class="s0" d="m55.3 36.3q0 0 0 0l5.5 4.7q0 0 0 0 0 0 0 0 0 0 0 0 0.1 0 0.1 0 0 0.1 0 0.1 0 0 0 0 0 0 0 0 0 0 0 0.1 0 0 0 0 0 0 0 0 0 0 0 0 0 0 0 0-0.1 0.1-0.1 0.1 0 0 0 0 0 0 0 0l-15.5 16.3q-0.1 0.1-0.1 0.1 0 0 0 0 0 0 0 0-0.1 0-0.1 0 0 0 0 0 0 0-0.1 0 0 0 0 0 0 0 0 0 0 0 0 0 0 0 0 0-0.1 0-0.1-0.1l-15.6-16.3q0 0 0 0 0 0 0 0 0 0 0-0.1 0 0 0 0 0 0 0 0 0 0 0 0 0 0 0 0 0-0.1 0-0.1 0 0 0 0 0 0 0 0 0 0 0 0 0-0.1 0-0.1 0 0 0 0 0 0 0 0 0 0 0.1 0l5.5-4.7q0 0 0 0 0-0.1 0.1-0.1 0 0 0 0l3.3-1.1q0 0 0.1 0h13.4q0 0 0.1 0 0 0 0 0l3.3 1.1q0 0 0 0 0 0 0.1 0.1zm-0.1 0.9l-0.5 3.7h2.7zm-3.4-1.5l-2 1.7 4.3 3.4 0.7-4.1zm-2 5.2l-0.5-3.1-3.7 3.1zm0-3l0.5 3h3.3zm0.1 3.5h-4.5l1.9 8.2zm0.5 0l-2.5 7.9 6-7.9zm0.8-5.7h-4.9l3.2 1.4zm-2 1.8l-4-1.8-4 1.8 4 3.4zm-9.4 3.5l0.6-3-3.9 3zm1.1-3.1l-0.6 3.1h4.2zm-1 3.6h-3.5l6 7.9zm0.5 0l2.5 8.3 2-8.3zm3.6-5.7h-4.9l1.7 1.4zm-5.7 0l-3 1 0.6 4.1 4.4-3.4zm-3.4 1.5l-2.2 3.8h2.7zm-0.7 0.3l-4 3.4h2.1zm-4.1 3.9l7.9 8.3-5.7-8.3zm2.7 0l6.1 8.9-3.3-8.9zm7.2 10.5l4.5 4.7-1.8-5.9-6.2-8.1zm5.1 4.8l1.9-6.2-1.9-8.3-2 8.3zm0.6-0.1l4.5-4.7 3.4-9.3-6.1 8.1zm9-15.2l-3.4 8.8 6.1-8.8zm-2.3 8.3l7.9-8.3h-2.2zm7.8-8.8l-4-3.4 1.9 3.4z"/>
		</g>
	</g>
</svg>