<svg version="1.2" xmlns="http://www.w3.org/2000/svg" viewBox="0 0 94 88" width="94" height="88">
	<title>Steem</title>
	<style>
		.s0 { fill: #004f9e } 
		.s1 { fill: #ffffff } 
	</style>
	<g id="Steem">
		<g id="Group 2">
			<path id="Oval" class="s0" d="m47.7 76.5c17.5 0 31.7-14.2 31.7-31.7 0-17.5-14.2-31.7-31.7-31.7-17.5 0-31.7 14.2-31.7 31.7 0 17.5 14.2 31.7 31.7 31.7z"/>
			<g id="Group">
				<path id="Shape" class="s1" d="m64 51.9c-0.3 0.1-0.3 0.4-0.4 0.6-1.1 2.2-2.7 3.9-4.5 5.4-0.1 0.1-0.3 0.3-0.6 0.2-0.2-0.7 0.2-1.3 0.4-1.9 0.8-2.2 0.5-4.3-0.5-6.4-1.4-2.8-2.8-5.7-4-8.6-0.4-1-0.7-1.9-0.9-3-0.4-1.8 0.5-3.2 1.6-4.5 0.7-0.8 1.4-1.5 2.3-2.1 0.2-0.1 0.4-0.4 0.6-0.2 0.2 0.1 0.1 0.4 0.1 0.7-0.2 1.6-0.4 3.2 0 4.7 0.3 1.4 1.1 2.6 1.7 3.9 1.4 3 3 5.9 4 9.1 0.2 0.5 0.1 1.1 0.4 1.5-0.2 0.2-0.2 0.4-0.2 0.6z"/>
				<path id="Shape" class="s1" d="m46.9 28.7c-0.1 0.8-0.3 1.6-0.3 2.4-0.2 2.5 0.5 4.7 1.6 6.9 1.8 3.8 3.8 7.6 5.3 11.5 0.4 1 0.7 2.1 0.9 3.1 0.3 1.7-0.7 2.9-1.6 4.1q-1.8 2.6-4.2 4.5c-0.3 0.2-0.6 0.5-0.9 0.3-0.3-0.2-0.1-0.6 0-1 0.4-1.2 0.7-2.5 0.9-3.8 0.4-2.3-0.6-4.3-1.5-6.3-1.6-3.4-3.3-6.8-4.8-10.2-0.6-1.3-0.9-2.6-1.2-4-0.4-1.9 0.4-3.5 1.6-5 1-1.3 2.1-2.5 3.4-3.4 0.2-0.2 0.4-0.5 0.8-0.3 0.1 0.5-0.1 0.9 0 1.2z"/>
				<path id="Shape" class="s1" d="m36.7 58.1c-0.1-0.4 0-0.8 0.1-1.2 1-2.6 0.7-5-0.5-7.5-1.4-2.7-2.8-5.5-3.9-8.3-0.3-0.8-0.5-1.6-0.8-2.5-0.4-1.3-0.1-2.5 0.6-3.6 1-1.5 2.2-2.8 3.8-3.8 0.1 1.2-0.2 2.2-0.2 3.2 0 1.5 0.2 2.8 0.9 4.2 1.3 2.6 2.5 5.3 3.7 7.9 0.6 1.2 1 2.5 1.4 3.8 0.2 0.7 0.2 1.4-0.1 2.1-1.1 2.2-2.7 4-4.6 5.5-0.1 0.2-0.3 0.2-0.4 0.2z"/>
			</g>
		</g>
	</g>
</svg>