<svg version="1.2" xmlns="http://www.w3.org/2000/svg" viewBox="0 0 89 89" width="89" height="89">
	<title>Stellar lumens</title>
	<style>
		.s0 { fill: #6ddfff } 
	</style>
	<g id="Stellar lumens">
		<g id="STR">
			<path id="Combined Shape" fill-rule="evenodd" class="s0" d="m55.2 41.2c0 2.4-2 4.4-4.4 4.4-2.4 0-4.3-2-4.3-4.4 0-2.4 1.9-4.3 4.3-4.3 2.4 0 4.4 1.9 4.4 4.3zm-17 13.8c0.8 0.6 1.6 1.1 2.3 1.6 0.9 0.7 2 1.5 3 2.3q0 0 0 0c-2 2.6-4.7 3.9-6.2 2.8-1.4-1.1-1-4.1 0.9-6.7q0 0 0 0zm39.7-6.1c0 17.7-14.3 32-32 32-6.3 0-12.2-1.9-17.2-5q0.1-0.1 0.1-0.1l3.5-4.9c0.2-0.3 0.2-0.7-0.1-0.9-0.3-0.2-0.7-0.1-0.9 0.1l-3.5 4.9q0 0.1-0.1 0.2-0.7-0.5-1.3-1l4.4-6.2c0.2-0.2 0.2-0.4 0.1-0.7-0.1-0.2-0.3-0.3-0.5-0.3-0.3-0.1-0.5 0.1-0.6 0.2l-4.4 6.2c-7-5.9-11.4-14.6-11.4-24.5 0-17.6 14.3-31.9 31.9-31.9 17.7 0 32 14.3 32 31.9zm-20.7-0.4c2-2.5 3.8-5.7 3.8-10 0-4.2-1.5-8.3-1.5-8.3 0 0-5.4-0.4-9.9 2-4.5 2.5-6.2 5.6-7.1 7-0.8 1.5-2.6 4.5-2.6 4.5 0 0-3.9-0.1-6.9 1.6-3.1 1.7-5 4.9-5 4.9 0 0 2.1-0.6 4-0.5 2 0 3.9 0.9 3.9 0.9 0 0-0.5 0.6-0.4 1.7 0.1 0.4 0.7 1 1.5 1.7q-0.2 0.3-0.4 0.5c-2.9 4.1-3.6 8.6-1.5 10.1 2.1 1.5 6.2-0.6 9.1-4.7q0.1-0.2 0.2-0.4c0.8 0.4 1.4 0.7 1.8 0.7 1 0 1.9-1.1 1.9-1.1 0 0 2 2.5 2.5 3.8 0.5 1.2 0.7 3.5 0.7 3.5 0 0 2.2-2.6 2.9-6.5 0.8-3.9-1-6.6-1-6.6 0 0 2-2.4 4-4.8z"/>
		</g>
	</g>
</svg>