<svg version="1.2" xmlns="http://www.w3.org/2000/svg" viewBox="0 0 86 83" width="86" height="83">
	<title>Storj</title>
	<style>
		.s0 { fill: #1494ff } 
	</style>
	<g id="Storj">
		<g id="Storj">
			<path id="Combined Shape" fill-rule="evenodd" class="s0" d="m17.3 57.6c0.7 0 1.3 0.4 1.7 1 0.5 1 0.2 2.1-0.7 2.7q-0.5 0.2-1 0.3c-0.7 0-1.4-0.4-1.7-1-0.3-0.5-0.3-1-0.2-1.5 0.1-0.5 0.4-0.9 0.9-1.2q0.5-0.2 1-0.3zm25.6-40.5c-1 0-1.9-0.9-1.9-2 0-1.1 0.9-1.9 1.9-1.9 1.1 0 2 0.8 2 1.9 0 1.1-0.9 2-2 2zm25.8 15c-0.7 0-1.3-0.4-1.7-1-0.3-0.6-0.3-1.4 0-2 0.4-0.6 1-0.9 1.7-0.9 0.7 0 1.4 0.3 1.7 1 0.3 0.4 0.3 0.9 0.2 1.4-0.1 0.5-0.5 1-0.9 1.2q-0.5 0.3-1 0.3zm-50.5-3.8c0.9 0.6 1.2 1.7 0.7 2.7-0.3 0.6-1 1-1.7 1q-0.5 0-1-0.3c-0.4-0.2-0.7-0.7-0.9-1.2-0.1-0.5 0-1 0.2-1.5 0.4-0.6 1-0.9 1.7-0.9q0.5 0 1 0.2zm51.3 29.7c0.5 0.3 0.8 0.7 0.9 1.2 0.2 0.5 0.1 1-0.2 1.5-0.3 0.6-1 0.9-1.7 1q-0.5-0.1-1-0.3c-0.9-0.6-1.2-1.8-0.7-2.7 0.4-0.6 1-1 1.7-1q0.6 0.1 1 0.3zm-28.5 16.4c0-1.1 0.9-2 1.9-2 1.1 0 2 0.9 2 2 0 1.1-0.9 1.9-2 1.9-0.5 0-1-0.2-1.4-0.5-0.3-0.4-0.5-0.9-0.5-1.4zm32.8-11.6c-1.7 2.9-5.4 3.9-8.3 2.2q-0.5-0.3-0.8-0.6l-15.7 9.1q0 0.4 0 0.9c0 3.4-2.7 6.1-6.1 6.1-3.3 0-6.1-2.7-6.1-6.1q0-0.5 0.1-0.9l-15.8-9.1q-0.4 0.2-0.8 0.5c-2.9 1.7-6.6 0.7-8.3-2.2-1.7-3-0.7-6.7 2.2-8.4q0.4-0.2 0.8-0.4v-18.2q-0.4-0.2-0.8-0.4c-2.9-1.7-4-5.4-2.3-8.3 1.7-2.9 5.4-4 8.3-2.3q0.4 0.2 0.7 0.5l16-9.3q-0.1-0.4-0.1-0.8c0-3.4 2.8-6.1 6.1-6.1 3.4 0 6.1 2.7 6.1 6.1q0 0.4 0 0.8l16.1 9.3q0.3-0.2 0.6-0.4c2.9-1.7 6.7-0.6 8.3 2.3 1.7 2.9 0.7 6.7-2.3 8.3q-0.4 0.3-0.8 0.4v18.3q0.4 0.1 0.7 0.3c2.9 1.7 3.9 5.5 2.2 8.4zm-1.2-0.8c0.6-1 0.8-2.3 0.4-3.5-0.3-1.2-1.1-2.2-2.1-2.8-0.7-0.4-1.5-0.7-2.4-0.7-1.1 0-2.3 0.5-3.1 1.3l-7.2-4.2c0.5-1.1 0.8-2.3 0.8-3.6 0-2.7-1.3-5.3-3.6-6.8q-0.3-1.1-0.8-2l10.9-6.2c0.9 0.8 2 1.3 3.2 1.3 0.8 0 1.6-0.2 2.3-0.6 1.1-0.6 1.9-1.6 2.2-2.8 0.3-1.2 0.2-2.5-0.4-3.6-0.9-1.4-2.4-2.3-4.1-2.3-0.8 0-1.6 0.2-2.3 0.6-1.8 1-2.7 3.1-2.2 5l-11.1 6.3c-2.1-2.6-5.3-4.2-8.8-4.3v-13.5c1.9-0.6 3.3-2.4 3.3-4.5 0-2.6-2.1-4.6-4.7-4.6-2.5 0-4.6 2-4.6 4.6 0 2.1 1.4 3.9 3.3 4.5v13.8c-1.9 0.4-3.6 1.2-5.1 2.4-1.5 0.1-3 0.5-4.4 1.2l-10.4-5.9c0.5-2-0.4-4.1-2.2-5.1-0.7-0.4-1.5-0.6-2.3-0.6-1.7 0-3.2 0.9-4 2.3-0.6 1.1-0.8 2.3-0.5 3.5 0.3 1.2 1.1 2.2 2.2 2.9 0.7 0.4 1.5 0.6 2.3 0.6 1.2 0 2.3-0.5 3.2-1.3l9.4 5.4c-1.8 1.7-2.9 4.2-2.9 6.9 0 2.2 0.6 4.1 1.8 5.7l-8.3 4.8c-0.8-0.8-1.9-1.3-3.1-1.3-0.8 0-1.6 0.3-2.4 0.7-1 0.6-1.8 1.6-2.1 2.8-0.3 1.2-0.2 2.5 0.5 3.5 0.8 1.5 2.3 2.4 4 2.4 0.8 0 1.6-0.3 2.3-0.7 1.8-1 2.7-3.1 2.2-5.1l8.8-5c1.7 1.3 3.8 2.1 6.2 2.1q0.9 0 1.9-0.2 1.4 0.7 2.9 1.1v13.4c-1.9 0.6-3.3 2.4-3.3 4.5 0 1.2 0.5 2.4 1.3 3.3 0.9 0.9 2.1 1.3 3.3 1.3 2.6 0 4.7-2 4.7-4.6 0-2.1-1.4-3.9-3.3-4.5v-13.2q1.7 0 3.4-0.5 1.5 0.5 3.1 0.5c2.2 0 4.3-0.9 5.8-2.4l7.4 4.3c-0.5 2 0.4 4.1 2.2 5.1 0.7 0.4 1.5 0.7 2.3 0.7 1.7-0.1 3.2-0.9 4.1-2.4zm-20.4-17.9c1.9 0.6 3.2 2.3 3.2 4.4q0 0.2 0 0.5 0 0.2-0.1 0.3 0 0.1 0 0.1-0.1 0.5-0.2 0.9 0 0 0 0c-0.4 0.8-1 1.6-1.8 2.1q0 0 0 0-0.2 0.1-0.5 0.3-0.1 0-0.1 0-0.3 0.2-0.6 0.2-0.3 0.1-0.6 0.2-0.4 0-0.7 0c-1.1 0-2.1-0.3-2.9-0.9q-0.4 0.2-0.8 0.4-0.4 0.1-0.9 0.2 0 0 0 0-1 0.3-2.1 0.3c-1.3 0-2.6-0.3-3.8-0.9q0 0 0 0-0.2-0.1-0.5-0.3 0 0-0.1 0-0.2-0.2-0.5-0.4-1.1 0.5-2.4 0.5-0.4 0-0.7 0-0.1 0-0.1 0-0.3-0.1-0.6-0.1 0 0-0.1-0.1-0.3 0-0.6-0.1-0.3-0.1-0.6-0.3c-1.3-0.6-2.4-1.7-3-3q-0.1-0.1-0.1-0.1-0.1-0.2-0.1-0.3-0.1-0.1-0.1-0.3-0.1-0.2-0.2-0.5 0-0.2 0-0.3-0.1-0.2-0.1-0.4 0-0.1 0-0.2 0-0.3 0-0.6 0-0.3 0-0.7 0-0.1 0-0.2 0.1-0.2 0.1-0.5 0.1-0.1 0.1-0.2 0.1-0.2 0.1-0.5 0.1-0.1 0.1-0.2 0.1-0.2 0.3-0.5 0 0 0-0.1 0.5-0.9 1.3-1.7 0 0 0 0c1.1-1 2.5-1.6 3.9-1.6q0.2 0 0.4-0.1 0.5 0 1.1 0.2 0.2-0.3 0.5-0.6 0.3-0.3 0.7-0.6 0.1 0 0.2-0.1 0.3-0.3 0.7-0.5 0.1-0.1 0.3-0.1 0.3-0.2 0.6-0.3 0.1-0.1 0.2-0.1 1.4-0.6 3-0.6 0.5 0 1 0.1 0.4 0.1 0.8 0.1v0.1q0.4 0 0.7 0.2 0.1 0 0.1 0 0.3 0.1 0.7 0.2v0.1q0.4 0.1 0.7 0.3 0 0 0 0 0.3 0.2 0.6 0.4 0 0 0.1 0 0.3 0.2 0.5 0.5 0.1 0 0.1 0 0.3 0.3 0.5 0.5c0.8 0.8 1.4 1.8 1.8 2.9q0.2 0.3 0.2 0.6 0.1 0.1 0.1 0.2 0 0.2 0.1 0.5 0.1 0.3 0.1 0.7z"/>
		</g>
	</g>
</svg>