<svg version="1.2" xmlns="http://www.w3.org/2000/svg" viewBox="0 0 82 78" width="82" height="78">
	<title>Synergy</title>
	<style>
		.s0 { fill: #150362 } 
	</style>
	<g id="Synergy">
		<g id="SNRG-alt">
			<path id="Shape" fill-rule="evenodd" class="s0" d="m73.9 41c0 17.6-14.3 31.9-31.9 31.9-17.7 0-32-14.3-32-31.9 0-17.7 14.3-32 32-32 17.6 0 31.9 14.3 31.9 32zm-15 10.2v-7.8l-8-5.2-13.9 9 5 3.2 9-5.9 4.3 2.8-13.2 8.5-17.1-11.2v6.3l17.1 11.2zm0-13.9v-6.3l-17.1-11.2-16.8 11v7.8l8 5.1 13.9-9-4.9-3.2-9 5.9-4.3-2.8 13.1-8.5z"/>
		</g>
	</g>
</svg>