<svg version="1.2" xmlns="http://www.w3.org/2000/svg" viewBox="0 0 107 94" width="107" height="94">
	<title>Tether</title>
	<style>
		.s0 { fill: #00a478 } 
		.s1 { fill: #ffffff } 
	</style>
	<g id="Tether">
		<path id="Oval" fill-rule="evenodd" class="s0" d="m55.2 81.1c-17.5 0-31.7-14.2-31.7-31.7 0-17.5 14.2-31.7 31.7-31.7 17.5 0 31.7 14.2 31.7 31.7 0 17.5-14.2 31.7-31.7 31.7z"/>
		<path id="Shape" fill-rule="evenodd" class="s1" d="m51.6 38.3h-10.7v-7.1h29.9v7.2h-10.7v8h-8.5z"/>
		<path id="Shape" fill-rule="evenodd" class="s1" d="m73.3 47.3c-0.7 1-6.4 2.5-17.7 2.5-11.2 0-17-1.5-17.7-2.5 0.7-1.1 6.5-4.1 17.7-4.1 11.2 0 17 3.1 17.7 4.1zm-37 0c0 2.7 8.6 4.9 19.3 4.9 10.7 0 19.3-2.2 19.3-4.9 0-2.7-8.6-4.9-19.3-4.9-10.7 0-19.3 2.2-19.3 4.9z"/>
		<g id="Group">
			<path id="Shape" class="s1" d="m60.1 48.9v-5.6c-1.4-0.1-2.9-0.2-4.4-0.2-1.4 0-2.7 0-4 0.1v5.6c1.2 0 2.6 0.1 4 0.1 1.5 0.1 3 0.1 4.4 0z"/>
			<path id="Shape" class="s1" d="m55.6 52.2c-1.4 0-2.7 0-4-0.1v14.9h8.4v-15c-1.4 0.1-2.9 0.2-4.4 0.2z"/>
		</g>
	</g>
</svg>