<svg version="1.2" xmlns="http://www.w3.org/2000/svg" viewBox="0 0 89 88" width="89" height="88">
	<title>ven</title>
	<style>
		.s0 { fill: #15bdff } 
		.s1 { fill: #ffffff } 
	</style>
	<g id="ven">
		<g id="ven">
			<path id="Oval" class="s0" d="m46 77c17.7 0 32-14.3 32-32 0-17.7-14.3-32-32-32-17.7 0-32 14.3-32 32 0 17.7 14.3 32 32 32z"/>
			<path id="Shape" class="s1" d="m43.5 62.5l-15.4-31.4c-0.1-0.2-0.1-0.5 0-0.7 0.2-0.3 0.4-0.4 0.7-0.4h5.3c0.3 0 0.5 0.2 0.7 0.4l11.2 22.8c1 2 3.9 2 4.9 0l11.2-22.8c0.2-0.2 0.4-0.4 0.7-0.4h0.7c0.4 0 0.6 0.4 0.4 0.8l-15.5 31.7c-1 2-3.9 2-4.9 0z"/>
		</g>
	</g>
</svg>