<svg version="1.2" xmlns="http://www.w3.org/2000/svg" viewBox="0 0 84 100" width="84" height="100">
	<title>Verge</title>
	<style>
		.s0 { fill: #45b2b5 } 
	</style>
	<g id="Verge">
		<g id="XVG">
			<path id="Shape" fill-rule="evenodd" class="s0" d="m76 55c0 17.6-14.4 32-32 32-17.7 0-32-14.4-32-32 0-17.7 14.3-32 32-32 17.6 0 32 14.3 32 32zm-43.4 12.4l9.6 7.7-19.3-31.6zm10.4 4.9v-24.8l-6.9-5.8 3.5 6.7-7.7-6.4 4.1 9-12.2-10.2zm2-24.8v24.8l19.2-31.6-12.2 10.3 4.1-9.1-7.7 6.5 3.5-6.7zm10.4 19.8l9.6-23.9-19.2 31.6z"/>
		</g>
	</g>
</svg>