<svg version="1.2" xmlns="http://www.w3.org/2000/svg" viewBox="0 0 100 84" width="100" height="84">
	<title>WAVES</title>
	<style>
		.s0 { fill: #5dbdf7 } 
	</style>
	<g id="WAVES">
		<g id="WAVES">
			<path id="Shape" fill-rule="evenodd" class="s0" d="m79.9 44c0 17.6-14.3 31.9-31.9 31.9-17.7 0-32-14.3-32-31.9 0-17.7 14.3-32 32-32 17.6 0 31.9 14.3 31.9 32zm-45-7.4l3 3 2 1.9c0.6 0.6 1.5 0.6 2.1 0l4-3.7c1.1-1 2.8-1 3.9 0l4 3.7c0.6 0.6 1.6 0.6 2.1 0l2-1.9 3-2.9c0.6-0.6 0.6-1.6 0-2.1l-9.9-10c-1.7-1.7-4.5-1.7-6.3 0l-9.9 10c-0.6 0.5-0.6 1.5 0 2zm31.8 11.2c2.7-2.7 0.8-3.5-1.2-5.4l-2.4-2.3c-0.6-0.6-1.6-0.6-2.1 0l-4.1 3.7c-1.1 1-2.8 1-3.9 0l-4-3.7c-0.6-0.6-1.5-0.6-2.1 0l-4 3.7c-1.1 1-2.8 1-3.9 0l-4-3.7c-0.6-0.6-1.5-0.6-2.1 0l-2.2 2.1c-2.1 1.9-4.3 2.8-1.5 5.6l15.6 15.6c1.8 1.7 4.6 1.7 6.3 0z"/>
		</g>
	</g>
</svg>