<svg version="1.2" xmlns="http://www.w3.org/2000/svg" viewBox="0 0 105 111" width="105" height="111">
	<title>xtz</title>
	<style>
		.s0 { fill: #2e7ff8 } 
		.s1 { fill: #ffffff } 
	</style>
	<g id="xtz">
		<g id="xtz">
			<path id="Oval" class="s0" d="m47 87c17.7 0 32-14.3 32-32 0-17.7-14.3-32-32-32-17.7 0-32 14.3-32 32 0 17.7 14.3 32 32 32z"/>
			<path id="Shape" class="s1" d="m51.4 75q-4.4 0-6.4-2.1-2-2-2-4.4 0-0.9 0.3-1.5 0.4-0.6 1-0.9 0.6-0.4 1.5-0.4 0.9 0 1.5 0.4 0.6 0.3 0.9 0.9 0.4 0.6 0.4 1.5 0 1-0.5 1.7c-0.3 0.4-0.8 0.7-1.2 0.9q0.6 0.8 1.9 1.1 1.3 0.4 2.6 0.4c1.1 0 2.3-0.3 3.3-0.9q1.4-1 2.1-2.9 0.7-1.9 0.7-4.2 0-2.6-0.7-4.5-0.8-1.8-2.3-2.7c-0.9-0.6-2-0.9-3.1-0.9q-1.1 0-2.8 0.9l-2.1 1v-1l9.3-12.1h-12.8v12.6q0 1.5 0.7 2.5 0.7 1 2.1 1 1.2 0 2.2-0.7 1-0.7 1.7-1.8 0.1-0.2 0.3-0.3 0.1-0.1 0.3-0.1 0.2 0 0.6 0.3c0.2 0.2 0.3 0.5 0.3 0.8q0 0.3-0.1 0.6-0.8 1.8-2.2 2.7c-0.9 0.6-2 0.9-3.1 0.9q-4.1 0-5.7-1.6-1.6-1.6-1.6-4.3v-12.6h-6.5v-2.3h6.5v-5.3l-1.5-1.5v-1.2h4.4l1.6 0.8v7.2l16.9-0.1 1.6 1.7-10.3 10.1q0.9-0.3 1.9-0.4 1.7 0 3.8 1 2.1 1.1 3.3 2.9 1.1 1.8 1.5 3.4 0.3 1.5 0.3 3c0 1.8-0.4 3.7-1.3 5.4-0.8 1.7-2.1 3-3.8 3.8-1.7 0.8-3.6 1.2-5.5 1.2z"/>
		</g>
	</g>
</svg>